<svg width="226" height="34" viewBox="0 0 226 34" fill="none" xmlns="http://www.w3.org/2000/svg">
<path d="M11.6273 23V9.03636H16.9727C17.9818 9.03636 18.8205 9.19545 19.4886 9.51364C20.1614 9.82727 20.6636 10.2568 20.9955 10.8023C21.3318 11.3477 21.5 11.9659 21.5 12.6568C21.5 13.225 21.3909 13.7114 21.1727 14.1159C20.9545 14.5159 20.6614 14.8409 20.2932 15.0909C19.925 15.3409 19.5136 15.5205 19.0591 15.6295V15.7659C19.5545 15.7932 20.0295 15.9455 20.4841 16.2227C20.9432 16.4955 21.3182 16.8818 21.6091 17.3818C21.9 17.8818 22.0455 18.4864 22.0455 19.1955C22.0455 19.9182 21.8705 20.5682 21.5205 21.1455C21.1705 21.7182 20.6432 22.1705 19.9386 22.5023C19.2341 22.8341 18.3477 23 17.2795 23H11.6273ZM14.1568 20.8864H16.8773C17.7955 20.8864 18.4568 20.7114 18.8614 20.3614C19.2705 20.0068 19.475 19.5523 19.475 18.9977C19.475 18.5841 19.3727 18.2114 19.1682 17.8795C18.9636 17.5432 18.6727 17.2795 18.2955 17.0886C17.9182 16.8932 17.4682 16.7955 16.9455 16.7955H14.1568V20.8864ZM14.1568 14.975H16.6591C17.0955 14.975 17.4886 14.8955 17.8386 14.7364C18.1886 14.5727 18.4636 14.3432 18.6636 14.0477C18.8682 13.7477 18.9705 13.3932 18.9705 12.9841C18.9705 12.4432 18.7795 11.9977 18.3977 11.6477C18.0205 11.2977 17.4591 11.1227 16.7136 11.1227H14.1568V14.975ZM30.8119 18.5955V12.5273H33.2801V23H30.8869V21.1386H30.7778C30.5415 21.725 30.1528 22.2045 29.6119 22.5773C29.0756 22.95 28.4142 23.1364 27.6278 23.1364C26.9415 23.1364 26.3347 22.9841 25.8074 22.6795C25.2847 22.3705 24.8756 21.9227 24.5801 21.3364C24.2847 20.7455 24.1369 20.0318 24.1369 19.1955V12.5273H26.6051V18.8136C26.6051 19.4773 26.7869 20.0045 27.1506 20.3955C27.5142 20.7864 27.9915 20.9818 28.5824 20.9818C28.946 20.9818 29.2983 20.8932 29.6392 20.7159C29.9801 20.5386 30.2597 20.275 30.4778 19.925C30.7006 19.5705 30.8119 19.1273 30.8119 18.5955ZM35.8182 23V12.5273H38.2864V23H35.8182ZM37.0591 11.0409C36.6682 11.0409 36.3318 10.9114 36.05 10.6523C35.7682 10.3886 35.6273 10.0727 35.6273 9.70455C35.6273 9.33182 35.7682 9.01591 36.05 8.75682C36.3318 8.49318 36.6682 8.36136 37.0591 8.36136C37.4545 8.36136 37.7909 8.49318 38.0682 8.75682C38.35 9.01591 38.4909 9.33182 38.4909 9.70455C38.4909 10.0727 38.35 10.3886 38.0682 10.6523C37.7909 10.9114 37.4545 11.0409 37.0591 11.0409ZM43.2926 9.03636V23H40.8244V9.03636H43.2926ZM51.0602 12.5273V14.4364H45.0398V12.5273H51.0602ZM46.5261 10.0182H48.9943V19.85C48.9943 20.1818 49.0443 20.4364 49.1443 20.6136C49.2489 20.7864 49.3852 20.9045 49.5534 20.9682C49.7216 21.0318 49.908 21.0636 50.1125 21.0636C50.267 21.0636 50.408 21.0523 50.5352 21.0295C50.667 21.0068 50.767 20.9864 50.8352 20.9682L51.2511 22.8977C51.1193 22.9432 50.9307 22.9932 50.6852 23.0477C50.4443 23.1023 50.1489 23.1341 49.7989 23.1432C49.1807 23.1614 48.6239 23.0682 48.1284 22.8636C47.633 22.6545 47.2398 22.3318 46.9489 21.8955C46.6625 21.4591 46.5216 20.9136 46.5261 20.2591V10.0182ZM62.4551 23.2045C61.4324 23.2045 60.546 22.9795 59.796 22.5295C59.046 22.0795 58.4642 21.45 58.0506 20.6409C57.6415 19.8318 57.4369 18.8864 57.4369 17.8045C57.4369 16.7227 57.6415 15.775 58.0506 14.9614C58.4642 14.1477 59.046 13.5159 59.796 13.0659C60.546 12.6159 61.4324 12.3909 62.4551 12.3909C63.4778 12.3909 64.3642 12.6159 65.1142 13.0659C65.8642 13.5159 66.4437 14.1477 66.8528 14.9614C67.2665 15.775 67.4733 16.7227 67.4733 17.8045C67.4733 18.8864 67.2665 19.8318 66.8528 20.6409C66.4437 21.45 65.8642 22.0795 65.1142 22.5295C64.3642 22.9795 63.4778 23.2045 62.4551 23.2045ZM62.4687 21.2273C63.0233 21.2273 63.4869 21.075 63.8597 20.7705C64.2324 20.4614 64.5097 20.0477 64.6915 19.5295C64.8778 19.0114 64.971 18.4341 64.971 17.7977C64.971 17.1568 64.8778 16.5773 64.6915 16.0591C64.5097 15.5364 64.2324 15.1205 63.8597 14.8114C63.4869 14.5023 63.0233 14.3477 62.4687 14.3477C61.9006 14.3477 61.4278 14.5023 61.0506 14.8114C60.6778 15.1205 60.3983 15.5364 60.2119 16.0591C60.0301 16.5773 59.9392 17.1568 59.9392 17.7977C59.9392 18.4341 60.0301 19.0114 60.2119 19.5295C60.3983 20.0477 60.6778 20.4614 61.0506 20.7705C61.4278 21.075 61.9006 21.2273 62.4687 21.2273ZM72.0364 16.8636V23H69.5682V12.5273H71.9273V14.3068H72.05C72.2909 13.7205 72.675 13.2545 73.2023 12.9091C73.7341 12.5636 74.3909 12.3909 75.1727 12.3909C75.8955 12.3909 76.525 12.5455 77.0614 12.8545C77.6023 13.1636 78.0205 13.6114 78.3159 14.1977C78.6159 14.7841 78.7636 15.4955 78.7591 16.3318V23H76.2909V16.7136C76.2909 16.0136 76.1091 15.4659 75.7455 15.0705C75.3864 14.675 74.8886 14.4773 74.2523 14.4773C73.8205 14.4773 73.4364 14.5727 73.1 14.7636C72.7682 14.95 72.5068 15.2205 72.3159 15.575C72.1295 15.9295 72.0364 16.3591 72.0364 16.8636Z" fill="black"/>
<path fill-rule="evenodd" clip-rule="evenodd" d="M132.434 17.2136C132.434 26.4461 124.936 33.9306 115.688 33.9306C106.913 33.9306 99.7149 27.1937 99 18.6188H121.135V15.8084H99C99.7149 7.23339 106.913 0.496582 115.688 0.496582C124.936 0.496582 132.434 7.98102 132.434 17.2136ZM194.518 30.9018C200.321 30.9018 204.127 27.7745 204.127 23.0646C204.127 18.6937 201.263 16.6214 196.93 15.9055L193.086 15.2649C190.148 14.7751 188.188 13.4939 188.188 10.668C188.188 7.80436 190.374 5.61894 194.518 5.61894C198.55 5.61894 200.622 7.65362 200.848 10.5549H203.75C203.524 6.71165 200.585 3.2828 194.556 3.2828C188.602 3.2828 185.325 6.63627 185.325 10.781C185.325 15.1895 188.301 17.2242 192.371 17.9025L196.252 18.5053C199.492 19.0705 201.3 20.3893 201.3 23.1776C201.3 26.4557 198.625 28.5658 194.556 28.5658C190.336 28.5658 187.698 26.5311 187.472 23.0646H184.609C184.835 27.5861 188.301 30.9018 194.518 30.9018ZM151.741 30.3744H141.19V3.848H151.364C155.848 3.848 158.975 6.48555 158.975 10.7057C158.975 13.7577 157.242 15.7924 154.454 16.4706V16.5837C157.769 17.2242 159.804 19.485 159.804 23.0269C159.804 27.5861 156.451 30.3744 151.741 30.3744ZM150.987 15.491C154.19 15.491 156.149 13.7577 156.149 11.0448V10.668C156.149 7.95507 154.19 6.25949 150.987 6.25949H144.017V15.491H150.987ZM151.326 27.9629C154.831 27.9629 156.978 26.0413 156.978 23.1022V22.7254C156.978 19.6734 154.793 17.8271 151.289 17.8271H144.017V27.9629H151.326ZM182.625 30.3744H179.61L177.35 23.1776H166.799L164.539 30.3744H161.675L170.379 3.848H173.808L182.625 30.3744ZM172.225 6.74933H171.999L167.553 20.8038H176.634L172.225 6.74933ZM208.371 30.3744V3.848H225.402V6.29717H211.197V15.4156H224.272V17.8271H211.197V27.9252H225.402V30.3744H208.371Z" fill="#0052FF"/>
</svg>
