<svg width="1462" height="783" viewBox="0 0 1462 783" fill="none" xmlns="http://www.w3.org/2000/svg">
<mask id="mask0_1_611" style="mask-type:alpha" maskUnits="userSpaceOnUse" x="0" y="0" width="1462" height="783">
<path d="M0 35C0 15.67 15.67 0 35 0H1426C1445.88 0 1462 16.1178 1462 36V747C1462 766.882 1445.88 783 1426 783H36C16.1178 783 0 766.882 0 747V35Z" fill="#1452FF"/>
</mask>
<g mask="url(#mask0_1_611)">
<mask id="mask1_1_611" style="mask-type:alpha" maskUnits="userSpaceOnUse" x="-2028" y="-1292" width="5585" height="3095">
<path d="M-2028 -1292L3556.1 -759.652V1802.72L-2028 1270.37V-1292Z" fill="#0345FD"/>
</mask>
<g mask="url(#mask1_1_611)">
<mask id="mask2_1_611" style="mask-type:luminance" maskUnits="userSpaceOnUse" x="-2127" y="-1459" width="5779" height="3358">
<path d="M-2120.51 -1458.8L3651.83 -1063.17L2825.19 1898.38H-2120.51C-2120.51 1898.38 -2134.93 -1458.64 -2120.51 -1458.64V-1458.8Z" fill="white"/>
</mask>
<g mask="url(#mask2_1_611)">
<path d="M3173.98 -2382.69L886.269 203.271L3480.53 -2274.6C3480.53 -2274.6 3151.63 -2382.69 3173.98 -2382.69Z" fill="#2E65FF"/>
<path d="M2613.23 -2524.14L893.627 153.394L2934.63 -2515.8L2613.23 -2524.14Z" fill="#2E65FF"/>
<path d="M621.685 504.765L-2077.25 3130.18V2726.85L621.685 504.765Z" fill="#2E65FF"/>
<path d="M598.76 483.918L-2062.83 2307V1953.55C-2062.83 1953.55 598.616 490.012 598.616 483.918H598.76Z" fill="#2E65FF"/>
<path d="M-1745.47 -2532.48L631.924 286.34L-2089.36 -2440.91C-2089.36 -2440.91 -1737.97 -2540.66 -1745.47 -2532.32V-2532.48Z" fill="#2E65FF"/>
<path d="M615.197 321.783L-2106.09 -1601.05V-1962.85L615.197 321.783Z" fill="#2E65FF"/>
<path d="M833.932 -2532.48L736.748 269.663L639.564 -2532.48C639.564 -2532.48 841.43 -2540.82 833.932 -2532.48Z" fill="#2E65FF"/>
<path d="M437.702 -2549L736.751 269.824L213.487 -2524.14C213.487 -2524.14 430.348 -2549.16 437.702 -2549.16V-2549Z" fill="#2E65FF"/>
<path d="M-481.941 -2524.14L661.914 261.485L-765.995 -2532.48L-481.941 -2524.14Z" fill="#2E65FF"/>
<path d="M-257.58 -2511.95L691.908 290.19L-40.7191 -2511.95H-257.58Z" fill="#2E65FF"/>
<path d="M-1087.54 -2511.95L661.915 306.868L-1446.42 -2511.95C-1446.42 -2511.95 -1087.54 -2495.92 -1087.54 -2511.95Z" fill="#2E65FF"/>
<path d="M2254.34 -2515.8L841.287 211.609L2007.64 -2549L2254.34 -2515.8Z" fill="#2E65FF"/>
<path d="M1768.43 -2524.14L774.094 286.342L1544.07 -2532.48L1768.43 -2524.14Z" fill="#2E65FF"/>
<path d="M1289.86 -2524.14L736.75 303.021L1073.14 -2557.34L1289.86 -2524.14Z" fill="#2E65FF"/>
<path d="M759.096 569.074L841.284 3778.72L1073.14 3770.54L759.096 569.074Z" fill="#2E65FF"/>
<path d="M-466.943 3762.2L676.912 544.216L-743.643 3787.06L-466.943 3762.2Z" fill="#2E65FF"/>
<path d="M3592.57 1192.75L789.089 444.466L3600.06 935.037L3592.57 1192.75Z" fill="#2E65FF"/>
<path d="M3585.07 -1251.93L729.251 386.252L3607.56 -960.854L3585.07 -1251.93Z" fill="#2E65FF"/>
<path d="M3600.06 -595.051L796.438 361.235L3585.06 -345.515L3600.06 -595.051Z" fill="#2E65FF"/>
<path d="M3592.57 -96.1404L766.595 402.77L3585.07 153.395L3592.57 -96.1404Z" fill="#2E65FF"/>
<path d="M3600.06 452.646L893.627 386.252L3592.57 702.181L3600.06 452.646Z" fill="#2E65FF"/>
<path d="M3592.57 -1567.86L871.28 286.341L3600.07 -1917.14L3592.57 -1567.86Z" fill="#2E65FF"/>
<path d="M-2077.25 -1285.12L625.434 321.783L-2077.25 -969.194V-1285.12Z" fill="#2E65FF"/>
<path d="M542.236 328.037L-2096.72 -669.785L-2089.37 -403.731L542.236 328.037Z" fill="#2E65FF"/>
<path d="M576.842 379.997L-2077.25 103.52V-141.846L576.842 379.997Z" fill="#2E65FF"/>
<path d="M3592.57 3753.86L789.089 444.466L3188.84 3787.05L3592.57 3753.86Z" fill="#2E65FF"/>
<path d="M2755.26 3770.54L759.096 460.985L2433.71 3787.06L2755.26 3770.54Z" fill="#2E65FF"/>
<path d="M2149.66 3778.72L774.094 519.199L1865.61 3770.54L2149.66 3778.72Z" fill="#2E65FF"/>
<path d="M1559.06 3762.2L759.096 460.985L1312.35 3778.72L1559.06 3762.2Z" fill="#2E65FF"/>
<path d="M564.733 3806.62L721.756 538.766L318.025 3806.62H564.733Z" fill="#2E65FF"/>
<path d="M86.3104 3778.72L729.251 386.252L-167.896 3787.06L86.3104 3778.72Z" fill="#2E65FF"/>
<path d="M-1050.19 3770.54L699.257 477.663L-1386.59 3803.73L-1050.19 3770.54Z" fill="#2E65FF"/>
<path d="M-1842.66 3787.05L691.761 436.126L-2096.72 3587.55L-1842.66 3787.05Z" fill="#2E65FF"/>
<path d="M-2077.25 643.967L636.68 411.11L-2077.25 386.252V643.967Z" fill="#2E65FF"/>
<path d="M-2077.25 1151.22L606.689 436.126L-2077.25 885.161V1151.22Z" fill="#2E65FF"/>
<path d="M-2081.87 1716.68L639.567 444.466L-2074.37 1408.93L-2081.87 1716.68Z" fill="#2E65FF"/>
<path d="M3592.57 2074.14L848.786 477.663L3600.07 2456.63L3592.57 2074.14Z" fill="#2E65FF"/>
<path d="M3592.57 1500.5L833.79 444.466L3585.07 1799.91C3585.07 1799.91 3577.57 1500.5 3592.57 1500.5Z" fill="#2E65FF"/>
<path d="M3592.57 2855.79L871.28 510.862L3607.56 3329.68L3592.57 2855.79Z" fill="#2E65FF"/>
</g>
</g>
</g>
</svg>
