<svg width="394" height="743" viewBox="0 0 394 743" fill="none" xmlns="http://www.w3.org/2000/svg">
<path d="M371.708 382.776C378.088 382.776 383.26 377.604 383.26 371.224C383.26 364.844 378.088 359.672 371.708 359.672C365.328 359.672 360.156 364.844 360.156 371.224C360.156 377.604 365.328 382.776 371.708 382.776Z" fill="#9D9D9D" fill-opacity="0.14"/>
<path d="M0.968844 372.193C1.50393 372.193 1.93775 371.759 1.93775 371.224C1.93775 370.689 1.50393 370.255 0.968844 370.255C0.433755 370.255 0 370.689 0 371.224C0 371.759 0.433755 372.193 0.968844 372.193Z" fill="#9D9D9D" fill-opacity="0.14"/>
<path d="M26.0106 373.143C27.0705 373.143 27.9297 372.284 27.9297 371.224C27.9297 370.165 27.0705 369.305 26.0106 369.305C24.9507 369.305 24.0915 370.165 24.0915 371.224C24.0915 372.284 24.9507 373.143 26.0106 373.143Z" fill="#9D9D9D" fill-opacity="0.14"/>
<path d="M52.412 374.112C54.007 374.112 55.3 372.819 55.3 371.224C55.3 369.629 54.007 368.336 52.412 368.336C50.8171 368.336 49.524 369.629 49.524 371.224C49.524 372.819 50.8171 374.112 52.412 374.112Z" fill="#9D9D9D" fill-opacity="0.14"/>
<path d="M81.8501 375.752C83.9802 375.752 85.707 374.025 85.707 371.895C85.707 369.765 83.9802 368.038 81.8501 368.038C79.7201 368.038 77.9933 369.765 77.9933 371.895C77.9933 374.025 79.7201 375.752 81.8501 375.752Z" fill="#9D9D9D" fill-opacity="0.14"/>
<path d="M112.668 376.758C115.323 376.758 117.475 374.606 117.475 371.951C117.475 369.296 115.323 367.144 112.668 367.144C110.013 367.144 107.861 369.296 107.861 371.951C107.861 374.606 110.013 376.758 112.668 376.758Z" fill="#9D9D9D" fill-opacity="0.14"/>
<path d="M145.404 376.758C148.594 376.758 151.18 374.172 151.18 370.982C151.18 367.792 148.594 365.206 145.404 365.206C142.214 365.206 139.628 367.792 139.628 370.982C139.628 374.172 142.214 376.758 145.404 376.758Z" fill="#9D9D9D" fill-opacity="0.14"/>
<path d="M176.277 377.969C180.002 377.969 183.022 374.949 183.022 371.224C183.022 367.499 180.002 364.479 176.277 364.479C172.552 364.479 169.532 367.499 169.532 371.224C169.532 374.949 172.552 377.969 176.277 377.969Z" fill="#9D9D9D" fill-opacity="0.14"/>
<path d="M211.92 378.919C216.17 378.919 219.615 375.474 219.615 371.224C219.615 366.974 216.17 363.529 211.92 363.529C207.67 363.529 204.225 366.974 204.225 371.224C204.225 375.474 207.67 378.919 211.92 378.919Z" fill="#9D9D9D" fill-opacity="0.14"/>
<path d="M247.489 379.888C252.274 379.888 256.153 376.009 256.153 371.224C256.153 366.439 252.274 362.56 247.489 362.56C242.705 362.56 238.826 366.439 238.826 371.224C238.826 376.009 242.705 379.888 247.489 379.888Z" fill="#9D9D9D" fill-opacity="0.14"/>
<path d="M286.02 380.857C291.34 380.857 295.653 376.544 295.653 371.224C295.653 365.904 291.34 361.592 286.02 361.592C280.7 361.592 276.387 365.904 276.387 371.224C276.387 376.544 280.7 380.857 286.02 380.857Z" fill="#9D9D9D" fill-opacity="0.14"/>
<path d="M328.389 381.826C334.245 381.826 338.991 377.079 338.991 371.224C338.991 365.369 334.245 360.623 328.389 360.623C322.534 360.623 317.788 365.369 317.788 371.224C317.788 377.079 322.534 381.826 328.389 381.826Z" fill="#9D9D9D" fill-opacity="0.14"/>
<path d="M3.72635 327.085C4.26144 327.085 4.6952 326.651 4.6952 326.116C4.6952 325.581 4.26144 325.147 3.72635 325.147C3.19126 325.147 2.75751 325.581 2.75751 326.116C2.75751 326.651 3.19126 327.085 3.72635 327.085Z" fill="#9D9D9D" fill-opacity="0.14"/>
<path d="M28.5817 331.072C29.6416 331.072 30.5008 330.213 30.5008 329.153C30.5008 328.093 29.6416 327.234 28.5817 327.234C27.5218 327.234 26.6626 328.093 26.6626 329.153C26.6626 330.213 27.5218 331.072 28.5817 331.072Z" fill="#9D9D9D" fill-opacity="0.14"/>
<path d="M54.7964 335.265C56.3914 335.265 57.6844 333.972 57.6844 332.377C57.6844 330.782 56.3914 329.489 54.7964 329.489C53.2014 329.489 51.9085 330.782 51.9085 332.377C51.9085 333.972 53.2014 335.265 54.7964 335.265Z" fill="#9D9D9D" fill-opacity="0.14"/>
<path d="M83.9372 340.482C86.0672 340.482 87.794 338.755 87.794 336.625C87.794 334.495 86.0672 332.768 83.9372 332.768C81.8071 332.768 80.0804 334.495 80.0804 336.625C80.0804 338.755 81.8071 340.482 83.9372 340.482Z" fill="#9D9D9D" fill-opacity="0.14"/>
<path d="M114.512 345.233C117.167 345.233 119.319 343.081 119.319 340.426C119.319 337.771 117.167 335.619 114.512 335.619C111.857 335.619 109.705 337.771 109.705 340.426C109.705 343.081 111.857 345.233 114.512 345.233Z" fill="#9D9D9D" fill-opacity="0.14"/>
<path d="M147.118 349.239C150.308 349.239 152.894 346.653 152.894 343.463C152.894 340.273 150.308 337.687 147.118 337.687C143.928 337.687 141.342 340.273 141.342 343.463C141.342 346.653 143.928 349.239 147.118 349.239Z" fill="#9D9D9D" fill-opacity="0.14"/>
<path d="M177.731 354.213C181.456 354.213 184.476 351.193 184.476 347.468C184.476 343.743 181.456 340.724 177.731 340.724C174.006 340.724 170.986 343.743 170.986 347.468C170.986 351.193 174.006 354.213 177.731 354.213Z" fill="#9D9D9D" fill-opacity="0.14"/>
<path d="M213.113 359.505C217.363 359.505 220.808 356.06 220.808 351.81C220.808 347.56 217.363 344.115 213.113 344.115C208.863 344.115 205.418 347.56 205.418 351.81C205.418 356.06 208.863 359.505 213.113 359.505Z" fill="#9D9D9D" fill-opacity="0.14"/>
<path d="M32.979 221.591C33.5141 221.591 33.9478 221.157 33.9478 220.622C33.9478 220.087 33.5141 219.653 32.979 219.653C32.4439 219.653 32.0101 220.087 32.0101 220.622C32.0101 221.157 32.4439 221.591 32.979 221.591Z" fill="#9D9D9D" fill-opacity="0.14"/>
<path d="M55.84 232.733C56.8999 232.733 57.7591 231.873 57.7591 230.813C57.7591 229.754 56.8999 228.894 55.84 228.894C54.7801 228.894 53.9209 229.754 53.9209 230.813C53.9209 231.873 54.7801 232.733 55.84 232.733Z" fill="#9D9D9D" fill-opacity="0.14"/>
<path d="M79.9869 244.452C81.5819 244.452 82.8749 243.159 82.8749 241.564C82.8749 239.969 81.5819 238.676 79.9869 238.676C78.392 238.676 77.099 239.969 77.099 241.564C77.099 243.159 78.392 244.452 79.9869 244.452Z" fill="#9D9D9D" fill-opacity="0.14"/>
<path d="M106.612 257.998C108.742 257.998 110.469 256.271 110.469 254.141C110.469 252.011 108.742 250.284 106.612 250.284C104.482 250.284 102.755 252.011 102.755 254.141C102.755 256.271 104.482 257.998 106.612 257.998Z" fill="#9D9D9D" fill-opacity="0.14"/>
<path d="M134.728 271.525C137.383 271.525 139.535 269.372 139.535 266.717C139.535 264.063 137.383 261.91 134.728 261.91C132.073 261.91 129.921 264.063 129.921 266.717C129.921 269.372 132.073 271.525 134.728 271.525Z" fill="#9D9D9D" fill-opacity="0.14"/>
<path d="M165.042 284.94C168.232 284.94 170.818 282.354 170.818 279.164C170.818 275.974 168.232 273.388 165.042 273.388C161.852 273.388 159.266 275.974 159.266 279.164C159.266 282.354 161.852 284.94 165.042 284.94Z" fill="#9D9D9D" fill-opacity="0.14"/>
<path d="M193.14 298.69C196.865 298.69 199.884 295.67 199.884 291.945C199.884 288.22 196.865 285.2 193.14 285.2C189.415 285.2 186.395 288.22 186.395 291.945C186.395 295.67 189.415 298.69 193.14 298.69Z" fill="#9D9D9D" fill-opacity="0.14"/>
<path d="M225.69 314.136C229.939 314.136 233.385 310.691 233.385 306.441C233.385 302.191 229.939 298.746 225.69 298.746C221.44 298.746 217.995 302.191 217.995 306.441C217.995 310.691 221.44 314.136 225.69 314.136Z" fill="#9D9D9D" fill-opacity="0.14"/>
<path d="M87.5887 134.188C88.1238 134.188 88.5576 133.754 88.5576 133.219C88.5576 132.684 88.1238 132.25 87.5887 132.25C87.0536 132.25 86.6198 132.684 86.6198 133.219C86.6198 133.754 87.0536 134.188 87.5887 134.188Z" fill="#9D9D9D" fill-opacity="0.14"/>
<path d="M106.78 151.236C107.84 151.236 108.699 150.377 108.699 149.317C108.699 148.257 107.84 147.398 106.78 147.398C105.72 147.398 104.861 148.257 104.861 149.317C104.861 150.377 105.72 151.236 106.78 151.236Z" fill="#9D9D9D" fill-opacity="0.14"/>
<path d="M127.015 169.197C128.61 169.197 129.903 167.904 129.903 166.309C129.903 164.714 128.61 163.421 127.015 163.421C125.42 163.421 124.127 164.714 124.127 166.309C124.127 167.904 125.42 169.197 127.015 169.197Z" fill="#9D9D9D" fill-opacity="0.14"/>
<path d="M149.131 189.581C151.261 189.581 152.988 187.854 152.988 185.724C152.988 183.594 151.261 181.867 149.131 181.867C147.001 181.867 145.274 183.594 145.274 185.724C145.274 187.854 147.001 189.581 149.131 189.581Z" fill="#9D9D9D" fill-opacity="0.14"/>
<path d="M172.7 210.393C175.355 210.393 177.507 208.241 177.507 205.586C177.507 202.931 175.355 200.779 172.7 200.779C170.045 200.779 167.893 202.931 167.893 205.586C167.893 208.241 170.045 210.393 172.7 210.393Z" fill="#9D9D9D" fill-opacity="0.14"/>
<path d="M198.413 231.671C201.603 231.671 204.189 229.085 204.189 225.895C204.189 222.705 201.603 220.119 198.413 220.119C195.223 220.119 192.637 222.705 192.637 225.895C192.637 229.085 195.223 231.671 198.413 231.671Z" fill="#9D9D9D" fill-opacity="0.14"/>
<path d="M221.889 252.669C225.614 252.669 228.634 249.649 228.634 245.924C228.634 242.199 225.614 239.179 221.889 239.179C218.164 239.179 215.144 242.199 215.144 245.924C215.144 249.649 218.164 252.669 221.889 252.669Z" fill="#9D9D9D" fill-opacity="0.14"/>
<path d="M249.184 276.518C253.434 276.518 256.879 273.073 256.879 268.823C256.879 264.573 253.434 261.128 249.184 261.128C244.934 261.128 241.489 264.573 241.489 268.823C241.489 273.073 244.934 276.518 249.184 276.518Z" fill="#9D9D9D" fill-opacity="0.14"/>
<path d="M158.856 68.9013C159.391 68.9013 159.825 68.4676 159.825 67.9325C159.825 67.3974 159.391 66.9636 158.856 66.9636C158.321 66.9636 157.887 67.3974 157.887 67.9325C157.887 68.4676 158.321 68.9013 158.856 68.9013Z" fill="#9D9D9D" fill-opacity="0.14"/>
<path d="M173.222 90.3467C174.282 90.3467 175.141 89.4875 175.141 88.4276C175.141 87.3678 174.282 86.5085 173.222 86.5085C172.162 86.5085 171.303 87.3678 171.303 88.4276C171.303 89.4875 172.162 90.3467 173.222 90.3467Z" fill="#9D9D9D" fill-opacity="0.14"/>
<path d="M188.369 112.966C189.964 112.966 191.257 111.673 191.257 110.078C191.257 108.483 189.964 107.19 188.369 107.19C186.774 107.19 185.481 108.483 185.481 110.078C185.481 111.673 186.774 112.966 188.369 112.966Z" fill="#9D9D9D" fill-opacity="0.14"/>
<path d="M204.71 138.417C206.84 138.417 208.566 136.691 208.566 134.56C208.566 132.43 206.84 130.704 204.71 130.704C202.58 130.704 200.853 132.43 200.853 134.56C200.853 136.691 202.58 138.417 204.71 138.417Z" fill="#9D9D9D" fill-opacity="0.14"/>
<path d="M222.336 164.651C224.991 164.651 227.143 162.499 227.143 159.844C227.143 157.189 224.991 155.037 222.336 155.037C219.681 155.037 217.529 157.189 217.529 159.844C217.529 162.499 219.681 164.651 222.336 164.651Z" fill="#9D9D9D" fill-opacity="0.14"/>
<path d="M241.918 191.891C245.107 191.891 247.693 189.305 247.693 186.115C247.693 182.925 245.107 180.339 241.918 180.339C238.728 180.339 236.142 182.925 236.142 186.115C236.142 189.305 238.728 191.891 241.918 191.891Z" fill="#9D9D9D" fill-opacity="0.14"/>
<path d="M259.413 218.293C263.138 218.293 266.158 215.273 266.158 211.548C266.158 207.823 263.138 204.803 259.413 204.803C255.688 204.803 252.668 207.823 252.668 211.548C252.668 215.273 255.688 218.293 259.413 218.293Z" fill="#9D9D9D" fill-opacity="0.14"/>
<path d="M279.853 248.421C284.102 248.421 287.548 244.976 287.548 240.726C287.548 236.476 284.102 233.031 279.853 233.031C275.603 233.031 272.157 236.476 272.157 240.726C272.157 244.976 275.603 248.421 279.853 248.421Z" fill="#9D9D9D" fill-opacity="0.14"/>
<path d="M13.5828 276.369C14.1179 276.369 14.5516 275.935 14.5516 275.4C14.5516 274.865 14.1179 274.431 13.5828 274.431C13.0477 274.431 12.6139 274.865 12.6139 275.4C12.6139 275.935 13.0477 276.369 13.5828 276.369Z" fill="#9D9D9D" fill-opacity="0.14"/>
<path d="M37.7666 283.803C38.8265 283.803 39.6857 282.944 39.6857 281.884C39.6857 280.824 38.8265 279.965 37.7666 279.965C36.7067 279.965 35.8475 280.824 35.8475 281.884C35.8475 282.944 36.7067 283.803 37.7666 283.803Z" fill="#9D9D9D" fill-opacity="0.14"/>
<path d="M63.2927 291.61C64.8877 291.61 66.1807 290.317 66.1807 288.722C66.1807 287.127 64.8877 285.834 63.2927 285.834C61.6977 285.834 60.4048 287.127 60.4048 288.722C60.4048 290.317 61.6977 291.61 63.2927 291.61Z" fill="#9D9D9D" fill-opacity="0.14"/>
<path d="M91.5392 300.833C93.6693 300.833 95.3961 299.106 95.3961 296.976C95.3961 294.846 93.6693 293.119 91.5392 293.119C89.4092 293.119 87.6824 294.846 87.6824 296.976C87.6824 299.106 89.4092 300.833 91.5392 300.833Z" fill="#9D9D9D" fill-opacity="0.14"/>
<path d="M121.295 309.813C123.949 309.813 126.102 307.661 126.102 305.006C126.102 302.351 123.949 300.199 121.295 300.199C118.64 300.199 116.487 302.351 116.487 305.006C116.487 307.661 118.64 309.813 121.295 309.813Z" fill="#9D9D9D" fill-opacity="0.14"/>
<path d="M153.173 318.328C156.363 318.328 158.949 315.742 158.949 312.552C158.949 309.362 156.363 306.776 153.173 306.776C149.984 306.776 147.398 309.362 147.398 312.552C147.398 315.742 149.984 318.328 153.173 318.328Z" fill="#9D9D9D" fill-opacity="0.14"/>
<path d="M182.929 327.514C186.654 327.514 189.674 324.494 189.674 320.769C189.674 317.044 186.654 314.024 182.929 314.024C179.204 314.024 176.184 317.044 176.184 320.769C176.184 324.494 179.204 327.514 182.929 327.514Z" fill="#9D9D9D" fill-opacity="0.14"/>
<path d="M217.342 337.687C221.592 337.687 225.037 334.242 225.037 329.992C225.037 325.742 221.592 322.297 217.342 322.297C213.093 322.297 209.647 325.742 209.647 329.992C209.647 334.242 213.093 337.687 217.342 337.687Z" fill="#9D9D9D" fill-opacity="0.14"/>
<path d="M251.7 347.879C256.485 347.879 260.364 344 260.364 339.215C260.364 334.43 256.485 330.551 251.7 330.551C246.915 330.551 243.036 334.43 243.036 339.215C243.036 344 246.915 347.879 251.7 347.879Z" fill="#9D9D9D" fill-opacity="0.14"/>
<path d="M288.908 358.815C294.228 358.815 298.541 354.503 298.541 349.183C298.541 343.863 294.228 339.55 288.908 339.55C283.588 339.55 279.276 343.863 279.276 349.183C279.276 354.503 283.588 358.815 288.908 358.815Z" fill="#9D9D9D" fill-opacity="0.14"/>
<path d="M118.704 101.395C119.24 101.395 119.673 100.962 119.673 100.427C119.673 99.8915 119.24 99.4578 118.704 99.4578C118.169 99.4578 117.736 99.8915 117.736 100.427C117.736 100.962 118.169 101.395 118.704 101.395Z" fill="#9D9D9D" fill-opacity="0.14"/>
<path d="M135.79 120.661C136.85 120.661 137.709 119.802 137.709 118.742C137.709 117.682 136.85 116.823 135.79 116.823C134.73 116.823 133.871 117.682 133.871 118.742C133.871 119.802 134.73 120.661 135.79 120.661Z" fill="#9D9D9D" fill-opacity="0.14"/>
<path d="M153.807 140.951C155.402 140.951 156.695 139.658 156.695 138.063C156.695 136.468 155.402 135.175 153.807 135.175C152.212 135.175 150.919 136.468 150.919 138.063C150.919 139.658 152.212 140.951 153.807 140.951Z" fill="#9D9D9D" fill-opacity="0.14"/>
<path d="M173.389 163.906C175.519 163.906 177.246 162.179 177.246 160.049C177.246 157.919 175.519 156.192 173.389 156.192C171.259 156.192 169.532 157.919 169.532 160.049C169.532 162.179 171.259 163.906 173.389 163.906Z" fill="#9D9D9D" fill-opacity="0.14"/>
<path d="M194.369 187.42C197.024 187.42 199.176 185.267 199.176 182.612C199.176 179.958 197.024 177.805 194.369 177.805C191.714 177.805 189.562 179.958 189.562 182.612C189.562 185.267 191.714 187.42 194.369 187.42Z" fill="#9D9D9D" fill-opacity="0.14"/>
<path d="M217.399 211.678C220.589 211.678 223.174 209.092 223.174 205.902C223.174 202.712 220.589 200.126 217.399 200.126C214.209 200.126 211.623 202.712 211.623 205.902C211.623 209.092 214.209 211.678 217.399 211.678Z" fill="#9D9D9D" fill-opacity="0.14"/>
<path d="M238.285 235.397C242.01 235.397 245.03 232.377 245.03 228.652C245.03 224.927 242.01 221.907 238.285 221.907C234.56 221.907 231.54 224.927 231.54 228.652C231.54 232.377 234.56 235.397 238.285 235.397Z" fill="#9D9D9D" fill-opacity="0.14"/>
<path d="M262.581 262.413C266.831 262.413 270.276 258.968 270.276 254.718C270.276 250.469 266.831 247.023 262.581 247.023C258.331 247.023 254.886 250.469 254.886 254.718C254.886 258.968 258.331 262.413 262.581 262.413Z" fill="#9D9D9D" fill-opacity="0.14"/>
<path d="M286.839 289.392C291.624 289.392 295.503 285.514 295.503 280.729C295.503 275.944 291.624 272.065 286.839 272.065C282.055 272.065 278.176 275.944 278.176 280.729C278.176 285.514 282.055 289.392 286.839 289.392Z" fill="#9D9D9D" fill-opacity="0.14"/>
<path d="M313.111 318.533C318.431 318.533 322.744 314.22 322.744 308.9C322.744 303.58 318.431 299.268 313.111 299.268C307.791 299.268 303.478 303.58 303.478 308.9C303.478 314.22 307.791 318.533 313.111 318.533Z" fill="#9D9D9D" fill-opacity="0.14"/>
<path d="M57.2189 175.979C57.754 175.979 58.1878 175.546 58.1878 175.011C58.1878 174.476 57.754 174.042 57.2189 174.042C56.6838 174.042 56.25 174.476 56.25 175.011C56.25 175.546 56.6838 175.979 57.2189 175.979Z" fill="#9D9D9D" fill-opacity="0.14"/>
<path d="M78.4596 190.214C79.5195 190.214 80.3787 189.355 80.3787 188.295C80.3787 187.235 79.5195 186.376 78.4596 186.376C77.3997 186.376 76.5404 187.235 76.5404 188.295C76.5404 189.355 77.3997 190.214 78.4596 190.214Z" fill="#9D9D9D" fill-opacity="0.14"/>
<path d="M100.874 205.176C102.469 205.176 103.761 203.883 103.761 202.288C103.761 200.693 102.469 199.4 100.874 199.4C99.2786 199.4 97.9855 200.693 97.9855 202.288C97.9855 203.883 99.2786 205.176 100.874 205.176Z" fill="#9D9D9D" fill-opacity="0.14"/>
<path d="M125.486 222.299C127.616 222.299 129.343 220.572 129.343 218.442C129.343 216.312 127.616 214.585 125.486 214.585C123.356 214.585 121.629 216.312 121.629 218.442C121.629 220.572 123.356 222.299 125.486 222.299Z" fill="#9D9D9D" fill-opacity="0.14"/>
<path d="M151.59 239.626C154.245 239.626 156.397 237.474 156.397 234.819C156.397 232.164 154.245 230.012 151.59 230.012C148.935 230.012 146.783 232.164 146.783 234.819C146.783 237.474 148.935 239.626 151.59 239.626Z" fill="#9D9D9D" fill-opacity="0.14"/>
<path d="M179.855 257.14C183.045 257.14 185.631 254.555 185.631 251.365C185.631 248.175 183.045 245.589 179.855 245.589C176.665 245.589 174.079 248.175 174.079 251.365C174.079 254.555 176.665 257.14 179.855 257.14Z" fill="#9D9D9D" fill-opacity="0.14"/>
<path d="M205.903 274.673C209.628 274.673 212.647 271.653 212.647 267.928C212.647 264.203 209.628 261.184 205.903 261.184C202.178 261.184 199.158 264.203 199.158 267.928C199.158 271.653 202.178 274.673 205.903 274.673Z" fill="#9D9D9D" fill-opacity="0.14"/>
<path d="M236.124 294.498C240.374 294.498 243.819 291.053 243.819 286.803C243.819 282.553 240.374 279.108 236.124 279.108C231.874 279.108 228.429 282.553 228.429 286.803C228.429 291.053 231.874 294.498 236.124 294.498Z" fill="#9D9D9D" fill-opacity="0.14"/>
<path d="M266.289 314.322C271.074 314.322 274.953 310.443 274.953 305.658C274.953 300.873 271.074 296.994 266.289 296.994C261.504 296.994 257.625 300.873 257.625 305.658C257.625 310.443 261.504 314.322 266.289 314.322Z" fill="#9D9D9D" fill-opacity="0.14"/>
<path d="M298.97 335.712C304.29 335.712 308.602 331.399 308.602 326.079C308.602 320.759 304.29 316.446 298.97 316.446C293.649 316.446 289.337 320.759 289.337 326.079C289.337 331.399 293.649 335.712 298.97 335.712Z" fill="#9D9D9D" fill-opacity="0.14"/>
<path d="M334.892 359.132C340.747 359.132 345.493 354.386 345.493 348.531C345.493 342.675 340.747 337.929 334.892 337.929C329.036 337.929 324.29 342.675 324.29 348.531C324.29 354.386 329.036 359.132 334.892 359.132Z" fill="#9D9D9D" fill-opacity="0.14"/>
<path d="M250.693 22.0977C251.228 22.0977 251.662 21.6639 251.662 21.1288C251.662 20.5937 251.228 20.1599 250.693 20.1599C250.158 20.1599 249.724 20.5937 249.724 21.1288C249.724 21.6639 250.158 22.0977 250.693 22.0977Z" fill="#9D9D9D" fill-opacity="0.14"/>
<path d="M258.836 46.7291C259.896 46.7291 260.755 45.8699 260.755 44.81C260.755 43.7501 259.896 42.8909 258.836 42.8909C257.776 42.8909 256.917 43.7501 256.917 44.81C256.917 45.8699 257.776 46.7291 258.836 46.7291Z" fill="#9D9D9D" fill-opacity="0.14"/>
<path d="M267.444 72.6836C269.039 72.6836 270.332 71.3906 270.332 69.7957C270.332 68.2007 269.039 66.9077 267.444 66.9077C265.849 66.9077 264.556 68.2007 264.556 69.7957C264.556 71.3906 265.849 72.6836 267.444 72.6836Z" fill="#9D9D9D" fill-opacity="0.14"/>
<path d="M276.406 101.694C278.536 101.694 280.262 99.9668 280.262 97.8368C280.262 95.7067 278.536 93.98 276.406 93.98C274.275 93.98 272.549 95.7067 272.549 97.8368C272.549 99.9668 274.275 101.694 276.406 101.694Z" fill="#9D9D9D" fill-opacity="0.14"/>
<path d="M286.374 131.803C289.029 131.803 291.181 129.651 291.181 126.996C291.181 124.341 289.029 122.189 286.374 122.189C283.719 122.189 281.567 124.341 281.567 126.996C281.567 129.651 283.719 131.803 286.374 131.803Z" fill="#9D9D9D" fill-opacity="0.14"/>
<path d="M297.945 163.403C301.135 163.403 303.72 160.817 303.72 157.627C303.72 154.437 301.135 151.851 297.945 151.851C294.755 151.851 292.169 154.437 292.169 157.627C292.169 160.817 294.755 163.403 297.945 163.403Z" fill="#9D9D9D" fill-opacity="0.14"/>
<path d="M307.764 193.643C311.489 193.643 314.509 190.623 314.509 186.898C314.509 183.173 311.489 180.153 307.764 180.153C304.039 180.153 301.019 183.173 301.019 186.898C301.019 190.623 304.039 193.643 307.764 193.643Z" fill="#9D9D9D" fill-opacity="0.14"/>
<path d="M319.371 228.279C323.621 228.279 327.066 224.834 327.066 220.584C327.066 216.335 323.621 212.889 319.371 212.889C315.121 212.889 311.676 216.335 311.676 220.584C311.676 224.834 315.121 228.279 319.371 228.279Z" fill="#9D9D9D" fill-opacity="0.14"/>
<path d="M330.942 262.898C335.727 262.898 339.606 259.019 339.606 254.234C339.606 249.449 335.727 245.57 330.942 245.57C326.157 245.57 322.278 249.449 322.278 254.234C322.278 259.019 326.157 262.898 330.942 262.898Z" fill="#9D9D9D" fill-opacity="0.14"/>
<path d="M197.407 45.2759C197.942 45.2759 198.375 44.8421 198.375 44.307C198.375 43.7719 197.942 43.3381 197.407 43.3381C196.871 43.3381 196.438 43.7719 196.438 44.307C196.438 44.8421 196.871 45.2759 197.407 45.2759Z" fill="#9D9D9D" fill-opacity="0.14"/>
<path d="M209.163 68.3238C210.223 68.3238 211.082 67.4646 211.082 66.4047C211.082 65.3448 210.223 64.4856 209.163 64.4856C208.103 64.4856 207.244 65.3448 207.244 66.4047C207.244 67.4646 208.103 68.3238 209.163 68.3238Z" fill="#9D9D9D" fill-opacity="0.14"/>
<path d="M221.553 92.6197C223.148 92.6197 224.441 91.3267 224.441 89.7317C224.441 88.1368 223.148 86.8438 221.553 86.8438C219.958 86.8438 218.665 88.1368 218.665 89.7317C218.665 91.3267 219.958 92.6197 221.553 92.6197Z" fill="#9D9D9D" fill-opacity="0.14"/>
<path d="M234.801 119.897C236.931 119.897 238.658 118.17 238.658 116.04C238.658 113.91 236.931 112.183 234.801 112.183C232.671 112.183 230.944 113.91 230.944 116.04C230.944 118.17 232.671 119.897 234.801 119.897Z" fill="#9D9D9D" fill-opacity="0.14"/>
<path d="M249.222 148.069C251.877 148.069 254.029 145.916 254.029 143.262C254.029 140.607 251.877 138.455 249.222 138.455C246.567 138.455 244.415 140.607 244.415 143.262C244.415 145.916 246.567 148.069 249.222 148.069Z" fill="#9D9D9D" fill-opacity="0.14"/>
<path d="M265.431 177.507C268.621 177.507 271.207 174.921 271.207 171.731C271.207 168.541 268.621 165.955 265.431 165.955C262.241 165.955 259.656 168.541 259.656 171.731C259.656 174.921 262.241 177.507 265.431 177.507Z" fill="#9D9D9D" fill-opacity="0.14"/>
<path d="M279.704 205.846C283.429 205.846 286.449 202.827 286.449 199.102C286.449 195.377 283.429 192.357 279.704 192.357C275.979 192.357 272.959 195.377 272.959 199.102C272.959 202.827 275.979 205.846 279.704 205.846Z" fill="#9D9D9D" fill-opacity="0.14"/>
<path d="M296.436 238.266C300.686 238.266 304.131 234.821 304.131 230.571C304.131 226.321 300.686 222.876 296.436 222.876C292.186 222.876 288.741 226.321 288.741 230.571C288.741 234.821 292.186 238.266 296.436 238.266Z" fill="#9D9D9D" fill-opacity="0.14"/>
<path d="M313.148 270.63C317.933 270.63 321.812 266.751 321.812 261.966C321.812 257.181 317.933 253.302 313.148 253.302C308.363 253.302 304.484 257.181 304.484 261.966C304.484 266.751 308.363 270.63 313.148 270.63Z" fill="#9D9D9D" fill-opacity="0.14"/>
<path d="M331.221 305.621C336.541 305.621 340.854 301.308 340.854 295.988C340.854 290.668 336.541 286.355 331.221 286.355C325.901 286.355 321.589 290.668 321.589 295.988C321.589 301.308 325.901 305.621 331.221 305.621Z" fill="#9D9D9D" fill-opacity="0.14"/>
<path d="M351.12 344.003C356.975 344.003 361.721 339.257 361.721 333.401C361.721 327.546 356.975 322.8 351.12 322.8C345.265 322.8 340.518 327.546 340.518 333.401C340.518 339.257 345.265 344.003 351.12 344.003Z" fill="#9D9D9D" fill-opacity="0.14"/>
<path d="M306.944 7.5459C307.479 7.5459 307.913 7.11214 307.913 6.57706C307.913 6.04197 307.479 5.60815 306.944 5.60815C306.409 5.60815 305.975 6.04197 305.975 6.57706C305.975 7.11214 306.409 7.5459 306.944 7.5459Z" fill="#9D9D9D" fill-opacity="0.14"/>
<path d="M311.285 33.1651C312.345 33.1651 313.204 32.3059 313.204 31.246C313.204 30.1861 312.345 29.3269 311.285 29.3269C310.225 29.3269 309.366 30.1861 309.366 31.246C309.366 32.3059 310.225 33.1651 311.285 33.1651Z" fill="#9D9D9D" fill-opacity="0.14"/>
<path d="M315.868 60.1443C317.463 60.1443 318.756 58.8513 318.756 57.2563C318.756 55.6614 317.463 54.3684 315.868 54.3684C314.273 54.3684 312.98 55.6614 312.98 57.2563C312.98 58.8513 314.273 60.1443 315.868 60.1443Z" fill="#9D9D9D" fill-opacity="0.14"/>
<path d="M320.34 90.2163C322.47 90.2163 324.197 88.4895 324.197 86.3595C324.197 84.2294 322.47 82.5027 320.34 82.5027C318.21 82.5027 316.483 84.2294 316.483 86.3595C316.483 88.4895 318.21 90.2163 320.34 90.2163Z" fill="#9D9D9D" fill-opacity="0.14"/>
<path d="M325.632 121.536C328.287 121.536 330.439 119.384 330.439 116.729C330.439 114.075 328.287 111.922 325.632 111.922C322.977 111.922 320.825 114.075 320.825 116.729C320.825 119.384 322.977 121.536 325.632 121.536Z" fill="#9D9D9D" fill-opacity="0.14"/>
<path d="M332.265 154.571C335.455 154.571 338.041 151.985 338.041 148.795C338.041 145.605 335.455 143.019 332.265 143.019C329.075 143.019 326.489 145.605 326.489 148.795C326.489 151.985 329.075 154.571 332.265 154.571Z" fill="#9D9D9D" fill-opacity="0.14"/>
<path d="M337.388 185.985C341.114 185.985 344.133 182.965 344.133 179.24C344.133 175.515 341.114 172.495 337.388 172.495C333.663 172.495 330.644 175.515 330.644 179.24C330.644 182.965 333.663 185.985 337.388 185.985Z" fill="#9D9D9D" fill-opacity="0.14"/>
<path d="M343.574 222.038C347.824 222.038 351.269 218.593 351.269 214.343C351.269 210.093 347.824 206.648 343.574 206.648C339.325 206.648 335.879 210.093 335.879 214.343C335.879 218.593 339.325 222.038 343.574 222.038Z" fill="#9D9D9D" fill-opacity="0.14"/>
<path d="M349.742 258.035C354.527 258.035 358.406 254.156 358.406 249.371C358.406 244.586 354.527 240.707 349.742 240.707C344.957 240.707 341.078 244.586 341.078 249.371C341.078 254.156 344.957 258.035 349.742 258.035Z" fill="#9D9D9D" fill-opacity="0.14"/>
<path d="M356.43 296.939C361.75 296.939 366.063 292.626 366.063 287.306C366.063 281.986 361.75 277.673 356.43 277.673C351.11 277.673 346.798 281.986 346.798 287.306C346.798 292.626 351.11 296.939 356.43 296.939Z" fill="#9D9D9D" fill-opacity="0.14"/>
<path d="M371.243 1.93769C371.778 1.93769 372.212 1.50393 372.212 0.968844C372.212 0.433755 371.778 0 371.243 0C370.708 0 370.274 0.433755 370.274 0.968844C370.274 1.50393 370.708 1.93769 371.243 1.93769Z" fill="#9D9D9D" fill-opacity="0.14"/>
<path d="M371.243 27.9107C372.303 27.9107 373.162 27.0515 373.162 25.9916C373.162 24.9317 372.303 24.0725 371.243 24.0725C370.183 24.0725 369.324 24.9317 369.324 25.9916C369.324 27.0515 370.183 27.9107 371.243 27.9107Z" fill="#9D9D9D" fill-opacity="0.14"/>
<path d="M371.243 55.2999C372.838 55.2999 374.131 54.0069 374.131 52.4119C374.131 50.8169 372.838 49.5239 371.243 49.5239C369.648 49.5239 368.355 50.8169 368.355 52.4119C368.355 54.0069 369.648 55.2999 371.243 55.2999Z" fill="#9D9D9D" fill-opacity="0.14"/>
<path d="M370.572 85.7073C372.702 85.7073 374.429 83.9806 374.429 81.8505C374.429 79.7204 372.702 77.9937 370.572 77.9937C368.442 77.9937 366.715 79.7204 366.715 81.8505C366.715 83.9806 368.442 85.7073 370.572 85.7073Z" fill="#9D9D9D" fill-opacity="0.14"/>
<path d="M370.516 117.475C373.171 117.475 375.323 115.323 375.323 112.668C375.323 110.013 373.171 107.861 370.516 107.861C367.861 107.861 365.709 110.013 365.709 112.668C365.709 115.323 367.861 117.475 370.516 117.475Z" fill="#9D9D9D" fill-opacity="0.14"/>
<path d="M371.484 151.18C374.674 151.18 377.26 148.594 377.26 145.404C377.26 142.214 374.674 139.628 371.484 139.628C368.295 139.628 365.709 142.214 365.709 145.404C365.709 148.594 368.295 151.18 371.484 151.18Z" fill="#9D9D9D" fill-opacity="0.14"/>
<path d="M371.243 183.022C374.968 183.022 377.987 180.003 377.987 176.277C377.987 172.552 374.968 169.533 371.243 169.533C367.518 169.533 364.498 172.552 364.498 176.277C364.498 180.003 367.518 183.022 371.243 183.022Z" fill="#9D9D9D" fill-opacity="0.14"/>
<path d="M371.243 219.616C375.493 219.616 378.938 216.17 378.938 211.921C378.938 207.671 375.493 204.226 371.243 204.226C366.993 204.226 363.548 207.671 363.548 211.921C363.548 216.17 366.993 219.616 371.243 219.616Z" fill="#9D9D9D" fill-opacity="0.14"/>
<path d="M371.243 256.153C376.028 256.153 379.907 252.274 379.907 247.489C379.907 242.704 376.028 238.825 371.243 238.825C366.458 238.825 362.579 242.704 362.579 247.489C362.579 252.274 366.458 256.153 371.243 256.153Z" fill="#9D9D9D" fill-opacity="0.14"/>
<path d="M396.955 258.855C401.74 258.855 405.619 254.976 405.619 250.191C405.619 245.406 401.74 241.527 396.955 241.527C392.17 241.527 388.291 245.406 388.291 250.191C388.291 254.976 392.17 258.855 396.955 258.855Z" fill="#9D9D9D" fill-opacity="0.14"/>
<path d="M388.961 297.497C394.281 297.497 398.594 293.185 398.594 287.865C398.594 282.545 394.281 278.232 388.961 278.232C383.641 278.232 379.329 282.545 379.329 287.865C379.329 293.185 383.641 297.497 388.961 297.497Z" fill="#9D9D9D" fill-opacity="0.14"/>
<path d="M380.149 339.922C386.004 339.922 390.75 335.176 390.75 329.321C390.75 323.466 386.004 318.719 380.149 318.719C374.294 318.719 369.547 323.466 369.547 329.321C369.547 335.176 374.294 339.922 380.149 339.922Z" fill="#9D9D9D" fill-opacity="0.14"/>
<path d="M371.708 383.261C378.088 383.261 383.26 378.089 383.26 371.709C383.26 365.329 378.088 360.157 371.708 360.157C365.328 360.157 360.156 365.329 360.156 371.709C360.156 378.089 365.328 383.261 371.708 383.261Z" fill="#9D9D9D" fill-opacity="0.14"/>
<path d="M0.968844 372.678C1.50393 372.678 1.93775 372.244 1.93775 371.709C1.93775 371.174 1.50393 370.74 0.968844 370.74C0.433755 370.74 0 371.174 0 371.709C0 372.244 0.433755 372.678 0.968844 372.678Z" fill="#9D9D9D" fill-opacity="0.14"/>
<path d="M26.0106 373.628C27.0705 373.628 27.9297 372.769 27.9297 371.709C27.9297 370.649 27.0705 369.79 26.0106 369.79C24.9507 369.79 24.0915 370.649 24.0915 371.709C24.0915 372.769 24.9507 373.628 26.0106 373.628Z" fill="#9D9D9D" fill-opacity="0.14"/>
<path d="M52.412 374.597C54.007 374.597 55.3 373.304 55.3 371.709C55.3 370.114 54.007 368.821 52.412 368.821C50.8171 368.821 49.524 370.114 49.524 371.709C49.524 373.304 50.8171 374.597 52.412 374.597Z" fill="#9D9D9D" fill-opacity="0.14"/>
<path d="M81.8501 374.913C83.9802 374.913 85.707 373.187 85.707 371.057C85.707 368.927 83.9802 367.2 81.8501 367.2C79.7201 367.2 77.9933 368.927 77.9933 371.057C77.9933 373.187 79.7201 374.913 81.8501 374.913Z" fill="#9D9D9D" fill-opacity="0.14"/>
<path d="M112.668 375.808C115.323 375.808 117.475 373.656 117.475 371.001C117.475 368.346 115.323 366.194 112.668 366.194C110.013 366.194 107.861 368.346 107.861 371.001C107.861 373.656 110.013 375.808 112.668 375.808Z" fill="#9D9D9D" fill-opacity="0.14"/>
<path d="M145.404 377.727C148.594 377.727 151.18 375.141 151.18 371.951C151.18 368.761 148.594 366.175 145.404 366.175C142.214 366.175 139.628 368.761 139.628 371.951C139.628 375.141 142.214 377.727 145.404 377.727Z" fill="#9D9D9D" fill-opacity="0.14"/>
<path d="M176.277 378.454C180.002 378.454 183.022 375.434 183.022 371.709C183.022 367.984 180.002 364.964 176.277 364.964C172.552 364.964 169.532 367.984 169.532 371.709C169.532 375.434 172.552 378.454 176.277 378.454Z" fill="#9D9D9D" fill-opacity="0.14"/>
<path d="M211.92 379.404C216.17 379.404 219.615 375.959 219.615 371.709C219.615 367.459 216.17 364.014 211.92 364.014C207.67 364.014 204.225 367.459 204.225 371.709C204.225 375.959 207.67 379.404 211.92 379.404Z" fill="#9D9D9D" fill-opacity="0.14"/>
<path d="M247.489 380.373C252.274 380.373 256.153 376.494 256.153 371.709C256.153 366.924 252.274 363.045 247.489 363.045C242.705 363.045 238.826 366.924 238.826 371.709C238.826 376.494 242.705 380.373 247.489 380.373Z" fill="#9D9D9D" fill-opacity="0.14"/>
<path d="M286.02 381.341C291.34 381.341 295.653 377.029 295.653 371.709C295.653 366.389 291.34 362.076 286.02 362.076C280.7 362.076 276.387 366.389 276.387 371.709C276.387 377.029 280.7 381.341 286.02 381.341Z" fill="#9D9D9D" fill-opacity="0.14"/>
<path d="M328.389 382.31C334.245 382.31 338.991 377.564 338.991 371.709C338.991 365.854 334.245 361.107 328.389 361.107C322.534 361.107 317.788 365.854 317.788 371.709C317.788 377.564 322.534 382.31 328.389 382.31Z" fill="#9D9D9D" fill-opacity="0.14"/>
<path d="M3.72635 417.804C4.26144 417.804 4.6952 417.371 4.6952 416.835C4.6952 416.3 4.26144 415.867 3.72635 415.867C3.19126 415.867 2.75751 416.3 2.75751 416.835C2.75751 417.371 3.19126 417.804 3.72635 417.804Z" fill="#9D9D9D" fill-opacity="0.14"/>
<path d="M28.5817 415.699C29.6416 415.699 30.5008 414.84 30.5008 413.78C30.5008 412.72 29.6416 411.861 28.5817 411.861C27.5218 411.861 26.6626 412.72 26.6626 413.78C26.6626 414.84 27.5218 415.699 28.5817 415.699Z" fill="#9D9D9D" fill-opacity="0.14"/>
<path d="M54.7964 413.463C56.3914 413.463 57.6844 412.17 57.6844 410.575C57.6844 408.98 56.3914 407.687 54.7964 407.687C53.2014 407.687 51.9085 408.98 51.9085 410.575C51.9085 412.17 53.2014 413.463 54.7964 413.463Z" fill="#9D9D9D" fill-opacity="0.14"/>
<path d="M83.9372 410.184C86.0672 410.184 87.794 408.457 87.794 406.327C87.794 404.197 86.0672 402.47 83.9372 402.47C81.8071 402.47 80.0804 404.197 80.0804 406.327C80.0804 408.457 81.8071 410.184 83.9372 410.184Z" fill="#9D9D9D" fill-opacity="0.14"/>
<path d="M114.512 407.315C117.167 407.315 119.319 405.162 119.319 402.507C119.319 399.853 117.167 397.7 114.512 397.7C111.857 397.7 109.705 399.853 109.705 402.507C109.705 405.162 111.857 407.315 114.512 407.315Z" fill="#9D9D9D" fill-opacity="0.14"/>
<path d="M147.118 405.246C150.308 405.246 152.894 402.66 152.894 399.47C152.894 396.281 150.308 393.695 147.118 393.695C143.928 393.695 141.342 396.281 141.342 399.47C141.342 402.66 143.928 405.246 147.118 405.246Z" fill="#9D9D9D" fill-opacity="0.14"/>
<path d="M177.731 402.209C181.456 402.209 184.476 399.19 184.476 395.465C184.476 391.74 181.456 388.72 177.731 388.72C174.006 388.72 170.986 391.74 170.986 395.465C170.986 399.19 174.006 402.209 177.731 402.209Z" fill="#9D9D9D" fill-opacity="0.14"/>
<path d="M213.113 398.818C217.363 398.818 220.808 395.373 220.808 391.123C220.808 386.873 217.363 383.428 213.113 383.428C208.863 383.428 205.418 386.873 205.418 391.123C205.418 395.373 208.863 398.818 213.113 398.818Z" fill="#9D9D9D" fill-opacity="0.14"/>
<path d="M32.979 523.28C33.5141 523.28 33.9478 522.847 33.9478 522.311C33.9478 521.776 33.5141 521.343 32.979 521.343C32.4439 521.343 32.0101 521.776 32.0101 522.311C32.0101 522.847 32.4439 523.28 32.979 523.28Z" fill="#9D9D9D" fill-opacity="0.14"/>
<path d="M55.84 514.057C56.8999 514.057 57.7591 513.198 57.7591 512.138C57.7591 511.078 56.8999 510.219 55.84 510.219C54.7801 510.219 53.9209 511.078 53.9209 512.138C53.9209 513.198 54.7801 514.057 55.84 514.057Z" fill="#9D9D9D" fill-opacity="0.14"/>
<path d="M79.9869 504.276C81.5819 504.276 82.8749 502.983 82.8749 501.388C82.8749 499.793 81.5819 498.5 79.9869 498.5C78.392 498.5 77.099 499.793 77.099 501.388C77.099 502.983 78.392 504.276 79.9869 504.276Z" fill="#9D9D9D" fill-opacity="0.14"/>
<path d="M106.612 492.668C108.742 492.668 110.469 490.941 110.469 488.811C110.469 486.681 108.742 484.954 106.612 484.954C104.482 484.954 102.755 486.681 102.755 488.811C102.755 490.941 104.482 492.668 106.612 492.668Z" fill="#9D9D9D" fill-opacity="0.14"/>
<path d="M134.728 481.041C137.383 481.041 139.535 478.889 139.535 476.234C139.535 473.579 137.383 471.427 134.728 471.427C132.073 471.427 129.921 473.579 129.921 476.234C129.921 478.889 132.073 481.041 134.728 481.041Z" fill="#9D9D9D" fill-opacity="0.14"/>
<path d="M165.042 469.564C168.232 469.564 170.818 466.978 170.818 463.788C170.818 460.598 168.232 458.012 165.042 458.012C161.852 458.012 159.266 460.598 159.266 463.788C159.266 466.978 161.852 469.564 165.042 469.564Z" fill="#9D9D9D" fill-opacity="0.14"/>
<path d="M193.14 457.752C196.865 457.752 199.884 454.732 199.884 451.007C199.884 447.282 196.865 444.262 193.14 444.262C189.415 444.262 186.395 447.282 186.395 451.007C186.395 454.732 189.415 457.752 193.14 457.752Z" fill="#9D9D9D" fill-opacity="0.14"/>
<path d="M225.69 444.206C229.939 444.206 233.385 440.761 233.385 436.511C233.385 432.261 229.939 428.816 225.69 428.816C221.44 428.816 217.995 432.261 217.995 436.511C217.995 440.761 221.44 444.206 225.69 444.206Z" fill="#9D9D9D" fill-opacity="0.14"/>
<path d="M87.5887 610.683C88.1238 610.683 88.5576 610.249 88.5576 609.714C88.5576 609.179 88.1238 608.745 87.5887 608.745C87.0536 608.745 86.6198 609.179 86.6198 609.714C86.6198 610.249 87.0536 610.683 87.5887 610.683Z" fill="#9D9D9D" fill-opacity="0.14"/>
<path d="M106.78 595.554C107.84 595.554 108.699 594.695 108.699 593.635C108.699 592.575 107.84 591.716 106.78 591.716C105.72 591.716 104.861 592.575 104.861 593.635C104.861 594.695 105.72 595.554 106.78 595.554Z" fill="#9D9D9D" fill-opacity="0.14"/>
<path d="M127.015 579.53C128.61 579.53 129.903 578.237 129.903 576.642C129.903 575.047 128.61 573.754 127.015 573.754C125.42 573.754 124.127 575.047 124.127 576.642C124.127 578.237 125.42 579.53 127.015 579.53Z" fill="#9D9D9D" fill-opacity="0.14"/>
<path d="M149.131 561.085C151.261 561.085 152.988 559.358 152.988 557.228C152.988 555.098 151.261 553.371 149.131 553.371C147.001 553.371 145.274 555.098 145.274 557.228C145.274 559.358 147.001 561.085 149.131 561.085Z" fill="#9D9D9D" fill-opacity="0.14"/>
<path d="M172.7 542.173C175.355 542.173 177.507 540.021 177.507 537.366C177.507 534.711 175.355 532.559 172.7 532.559C170.045 532.559 167.893 534.711 167.893 537.366C167.893 540.021 170.045 542.173 172.7 542.173Z" fill="#9D9D9D" fill-opacity="0.14"/>
<path d="M198.413 522.833C201.603 522.833 204.189 520.247 204.189 517.057C204.189 513.867 201.603 511.281 198.413 511.281C195.223 511.281 192.637 513.867 192.637 517.057C192.637 520.247 195.223 522.833 198.413 522.833Z" fill="#9D9D9D" fill-opacity="0.14"/>
<path d="M221.889 503.773C225.614 503.773 228.634 500.753 228.634 497.028C228.634 493.303 225.614 490.283 221.889 490.283C218.164 490.283 215.144 493.303 215.144 497.028C215.144 500.753 218.164 503.773 221.889 503.773Z" fill="#9D9D9D" fill-opacity="0.14"/>
<path d="M249.184 481.824C253.434 481.824 256.879 478.379 256.879 474.129C256.879 469.879 253.434 466.434 249.184 466.434C244.934 466.434 241.489 469.879 241.489 474.129C241.489 478.379 244.934 481.824 249.184 481.824Z" fill="#9D9D9D" fill-opacity="0.14"/>
<path d="M158.856 675.988C159.391 675.988 159.825 675.554 159.825 675.019C159.825 674.484 159.391 674.051 158.856 674.051C158.321 674.051 157.887 674.484 157.887 675.019C157.887 675.554 158.321 675.988 158.856 675.988Z" fill="#9D9D9D" fill-opacity="0.14"/>
<path d="M173.222 656.425C174.282 656.425 175.141 655.565 175.141 654.505C175.141 653.446 174.282 652.586 173.222 652.586C172.162 652.586 171.303 653.446 171.303 654.505C171.303 655.565 172.162 656.425 173.222 656.425Z" fill="#9D9D9D" fill-opacity="0.14"/>
<path d="M188.369 635.762C189.964 635.762 191.257 634.469 191.257 632.874C191.257 631.279 189.964 629.986 188.369 629.986C186.774 629.986 185.481 631.279 185.481 632.874C185.481 634.469 186.774 635.762 188.369 635.762Z" fill="#9D9D9D" fill-opacity="0.14"/>
<path d="M204.71 612.248C206.84 612.248 208.566 610.521 208.566 608.391C208.566 606.261 206.84 604.534 204.71 604.534C202.58 604.534 200.853 606.261 200.853 608.391C200.853 610.521 202.58 612.248 204.71 612.248Z" fill="#9D9D9D" fill-opacity="0.14"/>
<path d="M222.336 587.915C224.991 587.915 227.143 585.762 227.143 583.108C227.143 580.453 224.991 578.301 222.336 578.301C219.681 578.301 217.529 580.453 217.529 583.108C217.529 585.762 219.681 587.915 222.336 587.915Z" fill="#9D9D9D" fill-opacity="0.14"/>
<path d="M241.918 562.612C245.107 562.612 247.693 560.026 247.693 556.836C247.693 553.646 245.107 551.061 241.918 551.061C238.728 551.061 236.142 553.646 236.142 556.836C236.142 560.026 238.728 562.612 241.918 562.612Z" fill="#9D9D9D" fill-opacity="0.14"/>
<path d="M259.413 538.149C263.138 538.149 266.158 535.129 266.158 531.404C266.158 527.679 263.138 524.659 259.413 524.659C255.688 524.659 252.668 527.679 252.668 531.404C252.668 535.129 255.688 538.149 259.413 538.149Z" fill="#9D9D9D" fill-opacity="0.14"/>
<path d="M279.853 509.921C284.102 509.921 287.548 506.476 287.548 502.226C287.548 497.976 284.102 494.531 279.853 494.531C275.603 494.531 272.157 497.976 272.157 502.226C272.157 506.476 275.603 509.921 279.853 509.921Z" fill="#9D9D9D" fill-opacity="0.14"/>
<path d="M13.5828 468.521C14.1179 468.521 14.5516 468.087 14.5516 467.552C14.5516 467.017 14.1179 466.583 13.5828 466.583C13.0477 466.583 12.6139 467.017 12.6139 467.552C12.6139 468.087 13.0477 468.521 13.5828 468.521Z" fill="#9D9D9D" fill-opacity="0.14"/>
<path d="M37.7666 462.987C38.8265 462.987 39.6857 462.128 39.6857 461.068C39.6857 460.008 38.8265 459.149 37.7666 459.149C36.7067 459.149 35.8475 460.008 35.8475 461.068C35.8475 462.128 36.7067 462.987 37.7666 462.987Z" fill="#9D9D9D" fill-opacity="0.14"/>
<path d="M63.2927 457.118C64.8877 457.118 66.1807 455.825 66.1807 454.23C66.1807 452.635 64.8877 451.342 63.2927 451.342C61.6977 451.342 60.4048 452.635 60.4048 454.23C60.4048 455.825 61.6977 457.118 63.2927 457.118Z" fill="#9D9D9D" fill-opacity="0.14"/>
<path d="M91.5392 449.833C93.6693 449.833 95.3961 448.106 95.3961 445.976C95.3961 443.846 93.6693 442.119 91.5392 442.119C89.4092 442.119 87.6824 443.846 87.6824 445.976C87.6824 448.106 89.4092 449.833 91.5392 449.833Z" fill="#9D9D9D" fill-opacity="0.14"/>
<path d="M121.295 442.753C123.949 442.753 126.102 440.6 126.102 437.946C126.102 435.291 123.949 433.138 121.295 433.138C118.64 433.138 116.487 435.291 116.487 437.946C116.487 440.6 118.64 442.753 121.295 442.753Z" fill="#9D9D9D" fill-opacity="0.14"/>
<path d="M153.173 436.176C156.363 436.176 158.949 433.59 158.949 430.4C158.949 427.21 156.363 424.624 153.173 424.624C149.984 424.624 147.398 427.21 147.398 430.4C147.398 433.59 149.984 436.176 153.173 436.176Z" fill="#9D9D9D" fill-opacity="0.14"/>
<path d="M182.929 428.909C186.654 428.909 189.674 425.889 189.674 422.164C189.674 418.439 186.654 415.419 182.929 415.419C179.204 415.419 176.184 418.439 176.184 422.164C176.184 425.889 179.204 428.909 182.929 428.909Z" fill="#9D9D9D" fill-opacity="0.14"/>
<path d="M217.342 420.637C221.592 420.637 225.037 417.191 225.037 412.941C225.037 408.692 221.592 405.246 217.342 405.246C213.093 405.246 209.647 408.692 209.647 412.941C209.647 417.191 213.093 420.637 217.342 420.637Z" fill="#9D9D9D" fill-opacity="0.14"/>
<path d="M251.7 412.401C256.485 412.401 260.364 408.522 260.364 403.737C260.364 398.952 256.485 395.073 251.7 395.073C246.915 395.073 243.036 398.952 243.036 403.737C243.036 408.522 246.915 412.401 251.7 412.401Z" fill="#9D9D9D" fill-opacity="0.14"/>
<path d="M288.908 403.402C294.228 403.402 298.541 399.089 298.541 393.769C298.541 388.449 294.228 384.136 288.908 384.136C283.588 384.136 279.276 388.449 279.276 393.769C279.276 399.089 283.588 403.402 288.908 403.402Z" fill="#9D9D9D" fill-opacity="0.14"/>
<path d="M118.704 643.475C119.24 643.475 119.673 643.041 119.673 642.506C119.673 641.971 119.24 641.538 118.704 641.538C118.169 641.538 117.736 641.971 117.736 642.506C117.736 643.041 118.169 643.475 118.704 643.475Z" fill="#9D9D9D" fill-opacity="0.14"/>
<path d="M135.79 626.129C136.85 626.129 137.709 625.27 137.709 624.21C137.709 623.15 136.85 622.291 135.79 622.291C134.73 622.291 133.871 623.15 133.871 624.21C133.871 625.27 134.73 626.129 135.79 626.129Z" fill="#9D9D9D" fill-opacity="0.14"/>
<path d="M153.807 607.776C155.402 607.776 156.695 606.483 156.695 604.888C156.695 603.293 155.402 602 153.807 602C152.212 602 150.919 603.293 150.919 604.888C150.919 606.483 152.212 607.776 153.807 607.776Z" fill="#9D9D9D" fill-opacity="0.14"/>
<path d="M173.389 586.759C175.519 586.759 177.246 585.033 177.246 582.903C177.246 580.773 175.519 579.046 173.389 579.046C171.259 579.046 169.532 580.773 169.532 582.903C169.532 585.033 171.259 586.759 173.389 586.759Z" fill="#9D9D9D" fill-opacity="0.14"/>
<path d="M194.369 565.128C197.024 565.128 199.176 562.975 199.176 560.321C199.176 557.666 197.024 555.513 194.369 555.513C191.714 555.513 189.562 557.666 189.562 560.321C189.562 562.975 191.714 565.128 194.369 565.128Z" fill="#9D9D9D" fill-opacity="0.14"/>
<path d="M217.399 542.807C220.589 542.807 223.174 540.22 223.174 537.031C223.174 533.841 220.589 531.255 217.399 531.255C214.209 531.255 211.623 533.841 211.623 537.031C211.623 540.22 214.209 542.807 217.399 542.807Z" fill="#9D9D9D" fill-opacity="0.14"/>
<path d="M238.285 521.044C242.01 521.044 245.03 518.025 245.03 514.299C245.03 510.574 242.01 507.555 238.285 507.555C234.56 507.555 231.54 510.574 231.54 514.299C231.54 518.025 234.56 521.044 238.285 521.044Z" fill="#9D9D9D" fill-opacity="0.14"/>
<path d="M262.581 495.928C266.831 495.928 270.276 492.483 270.276 488.233C270.276 483.984 266.831 480.538 262.581 480.538C258.331 480.538 254.886 483.984 254.886 488.233C254.886 492.483 258.331 495.928 262.581 495.928Z" fill="#9D9D9D" fill-opacity="0.14"/>
<path d="M286.839 470.887C291.624 470.887 295.503 467.008 295.503 462.223C295.503 457.438 291.624 453.559 286.839 453.559C282.055 453.559 278.176 457.438 278.176 462.223C278.176 467.008 282.055 470.887 286.839 470.887Z" fill="#9D9D9D" fill-opacity="0.14"/>
<path d="M313.111 443.684C318.431 443.684 322.744 439.371 322.744 434.051C322.744 428.731 318.431 424.419 313.111 424.419C307.791 424.419 303.478 428.731 303.478 434.051C303.478 439.371 307.791 443.684 313.111 443.684Z" fill="#9D9D9D" fill-opacity="0.14"/>
<path d="M57.2189 568.891C57.754 568.891 58.1878 568.458 58.1878 567.923C58.1878 567.387 57.754 566.954 57.2189 566.954C56.6838 566.954 56.25 567.387 56.25 567.923C56.25 568.458 56.6838 568.891 57.2189 568.891Z" fill="#9D9D9D" fill-opacity="0.14"/>
<path d="M78.4596 556.575C79.5195 556.575 80.3787 555.716 80.3787 554.656C80.3787 553.597 79.5195 552.737 78.4596 552.737C77.3997 552.737 76.5404 553.597 76.5404 554.656C76.5404 555.716 77.3997 556.575 78.4596 556.575Z" fill="#9D9D9D" fill-opacity="0.14"/>
<path d="M100.874 543.552C102.469 543.552 103.761 542.259 103.761 540.664C103.761 539.069 102.469 537.776 100.874 537.776C99.2786 537.776 97.9855 539.069 97.9855 540.664C97.9855 542.259 99.2786 543.552 100.874 543.552Z" fill="#9D9D9D" fill-opacity="0.14"/>
<path d="M125.486 528.367C127.616 528.367 129.343 526.64 129.343 524.51C129.343 522.38 127.616 520.653 125.486 520.653C123.356 520.653 121.629 522.38 121.629 524.51C121.629 526.64 123.356 528.367 125.486 528.367Z" fill="#9D9D9D" fill-opacity="0.14"/>
<path d="M151.59 512.939C154.245 512.939 156.397 510.787 156.397 508.132C156.397 505.477 154.245 503.325 151.59 503.325C148.935 503.325 146.783 505.477 146.783 508.132C146.783 510.787 148.935 512.939 151.59 512.939Z" fill="#9D9D9D" fill-opacity="0.14"/>
<path d="M179.855 497.363C183.045 497.363 185.631 494.777 185.631 491.587C185.631 488.397 183.045 485.811 179.855 485.811C176.665 485.811 174.079 488.397 174.079 491.587C174.079 494.777 176.665 497.363 179.855 497.363Z" fill="#9D9D9D" fill-opacity="0.14"/>
<path d="M205.903 481.768C209.628 481.768 212.647 478.748 212.647 475.023C212.647 471.298 209.628 468.279 205.903 468.279C202.178 468.279 199.158 471.298 199.158 475.023C199.158 478.748 202.178 481.768 205.903 481.768Z" fill="#9D9D9D" fill-opacity="0.14"/>
<path d="M236.124 463.844C240.374 463.844 243.819 460.399 243.819 456.149C243.819 451.899 240.374 448.454 236.124 448.454C231.874 448.454 228.429 451.899 228.429 456.149C228.429 460.399 231.874 463.844 236.124 463.844Z" fill="#9D9D9D" fill-opacity="0.14"/>
<path d="M266.289 445.957C271.074 445.957 274.953 442.078 274.953 437.293C274.953 432.509 271.074 428.63 266.289 428.63C261.504 428.63 257.625 432.509 257.625 437.293C257.625 442.078 261.504 445.957 266.289 445.957Z" fill="#9D9D9D" fill-opacity="0.14"/>
<path d="M298.97 426.505C304.29 426.505 308.602 422.193 308.602 416.873C308.602 411.553 304.29 407.24 298.97 407.24C293.649 407.24 289.337 411.553 289.337 416.873C289.337 422.193 293.649 426.505 298.97 426.505Z" fill="#9D9D9D" fill-opacity="0.14"/>
<path d="M334.892 405.023C340.747 405.023 345.493 400.276 345.493 394.421C345.493 388.566 340.747 383.82 334.892 383.82C329.036 383.82 324.29 388.566 324.29 394.421C324.29 400.276 329.036 405.023 334.892 405.023Z" fill="#9D9D9D" fill-opacity="0.14"/>
<path d="M250.693 722.773C251.228 722.773 251.662 722.339 251.662 721.804C251.662 721.269 251.228 720.835 250.693 720.835C250.158 720.835 249.724 721.269 249.724 721.804C249.724 722.339 250.158 722.773 250.693 722.773Z" fill="#9D9D9D" fill-opacity="0.14"/>
<path d="M258.836 700.061C259.896 700.061 260.755 699.202 260.755 698.142C260.755 697.082 259.896 696.223 258.836 696.223C257.776 696.223 256.917 697.082 256.917 698.142C256.917 699.202 257.776 700.061 258.836 700.061Z" fill="#9D9D9D" fill-opacity="0.14"/>
<path d="M267.444 676.044C269.039 676.044 270.332 674.751 270.332 673.156C270.332 671.561 269.039 670.268 267.444 670.268C265.849 670.268 264.556 671.561 264.556 673.156C264.556 674.751 265.849 676.044 267.444 676.044Z" fill="#9D9D9D" fill-opacity="0.14"/>
<path d="M276.406 648.972C278.536 648.972 280.262 647.245 280.262 645.115C280.262 642.985 278.536 641.258 276.406 641.258C274.275 641.258 272.549 642.985 272.549 645.115C272.549 647.245 274.275 648.972 276.406 648.972Z" fill="#9D9D9D" fill-opacity="0.14"/>
<path d="M286.374 620.763C289.029 620.763 291.181 618.611 291.181 615.956C291.181 613.301 289.029 611.149 286.374 611.149C283.719 611.149 281.567 613.301 281.567 615.956C281.567 618.611 283.719 620.763 286.374 620.763Z" fill="#9D9D9D" fill-opacity="0.14"/>
<path d="M297.945 591.082C301.135 591.082 303.72 588.496 303.72 585.306C303.72 582.116 301.135 579.53 297.945 579.53C294.755 579.53 292.169 582.116 292.169 585.306C292.169 588.496 294.755 591.082 297.945 591.082Z" fill="#9D9D9D" fill-opacity="0.14"/>
<path d="M307.764 562.78C311.489 562.78 314.509 559.76 314.509 556.035C314.509 552.31 311.489 549.291 307.764 549.291C304.039 549.291 301.019 552.31 301.019 556.035C301.019 559.76 304.039 562.78 307.764 562.78Z" fill="#9D9D9D" fill-opacity="0.14"/>
<path d="M319.371 530.044C323.621 530.044 327.066 526.598 327.066 522.349C327.066 518.099 323.621 514.654 319.371 514.654C315.121 514.654 311.676 518.099 311.676 522.349C311.676 526.598 315.121 530.044 319.371 530.044Z" fill="#9D9D9D" fill-opacity="0.14"/>
<path d="M330.942 497.382C335.727 497.382 339.606 493.503 339.606 488.718C339.606 483.933 335.727 480.054 330.942 480.054C326.157 480.054 322.278 483.933 322.278 488.718C322.278 493.503 326.157 497.382 330.942 497.382Z" fill="#9D9D9D" fill-opacity="0.14"/>
<path d="M197.407 699.614C197.942 699.614 198.375 699.18 198.375 698.645C198.375 698.11 197.942 697.676 197.407 697.676C196.871 697.676 196.438 698.11 196.438 698.645C196.438 699.18 196.871 699.614 197.407 699.614Z" fill="#9D9D9D" fill-opacity="0.14"/>
<path d="M209.163 678.466C210.223 678.466 211.082 677.607 211.082 676.547C211.082 675.487 210.223 674.628 209.163 674.628C208.103 674.628 207.244 675.487 207.244 676.547C207.244 677.607 208.103 678.466 209.163 678.466Z" fill="#9D9D9D" fill-opacity="0.14"/>
<path d="M221.553 656.108C223.148 656.108 224.441 654.815 224.441 653.22C224.441 651.625 223.148 650.332 221.553 650.332C219.958 650.332 218.665 651.625 218.665 653.22C218.665 654.815 219.958 656.108 221.553 656.108Z" fill="#9D9D9D" fill-opacity="0.14"/>
<path d="M234.801 630.768C236.931 630.768 238.658 629.042 238.658 626.912C238.658 624.781 236.931 623.055 234.801 623.055C232.671 623.055 230.944 624.781 230.944 626.912C230.944 629.042 232.671 630.768 234.801 630.768Z" fill="#9D9D9D" fill-opacity="0.14"/>
<path d="M249.222 604.479C251.877 604.479 254.029 602.326 254.029 599.671C254.029 597.017 251.877 594.865 249.222 594.865C246.567 594.865 244.415 597.017 244.415 599.671C244.415 602.326 246.567 604.479 249.222 604.479Z" fill="#9D9D9D" fill-opacity="0.14"/>
<path d="M265.431 576.996C268.621 576.996 271.207 574.41 271.207 571.22C271.207 568.03 268.621 565.444 265.431 565.444C262.241 565.444 259.656 568.03 259.656 571.22C259.656 574.41 262.241 576.996 265.431 576.996Z" fill="#9D9D9D" fill-opacity="0.14"/>
<path d="M279.704 550.595C283.429 550.595 286.449 547.575 286.449 543.85C286.449 540.125 283.429 537.105 279.704 537.105C275.979 537.105 272.959 540.125 272.959 543.85C272.959 547.575 275.979 550.595 279.704 550.595Z" fill="#9D9D9D" fill-opacity="0.14"/>
<path d="M296.436 520.075C300.686 520.075 304.131 516.63 304.131 512.38C304.131 508.131 300.686 504.685 296.436 504.685C292.186 504.685 288.741 508.131 288.741 512.38C288.741 516.63 292.186 520.075 296.436 520.075Z" fill="#9D9D9D" fill-opacity="0.14"/>
<path d="M313.148 489.631C317.933 489.631 321.812 485.752 321.812 480.967C321.812 476.182 317.933 472.303 313.148 472.303C308.363 472.303 304.484 476.182 304.484 480.967C304.484 485.752 308.363 489.631 313.148 489.631Z" fill="#9D9D9D" fill-opacity="0.14"/>
<path d="M331.221 456.596C336.541 456.596 340.854 452.284 340.854 446.964C340.854 441.644 336.541 437.331 331.221 437.331C325.901 437.331 321.589 441.644 321.589 446.964C321.589 452.284 325.901 456.596 331.221 456.596Z" fill="#9D9D9D" fill-opacity="0.14"/>
<path d="M351.12 420.152C356.975 420.152 361.721 415.405 361.721 409.55C361.721 403.695 356.975 398.949 351.12 398.949C345.265 398.949 340.518 403.695 340.518 409.55C340.518 415.405 345.265 420.152 351.12 420.152Z" fill="#9D9D9D" fill-opacity="0.14"/>
<path d="M306.944 737.325C307.479 737.325 307.913 736.891 307.913 736.356C307.913 735.821 307.479 735.387 306.944 735.387C306.409 735.387 305.975 735.821 305.975 736.356C305.975 736.891 306.409 737.325 306.944 737.325Z" fill="#9D9D9D" fill-opacity="0.14"/>
<path d="M311.285 713.625C312.345 713.625 313.204 712.766 313.204 711.706C313.204 710.646 312.345 709.787 311.285 709.787C310.225 709.787 309.366 710.646 309.366 711.706C309.366 712.766 310.225 713.625 311.285 713.625Z" fill="#9D9D9D" fill-opacity="0.14"/>
<path d="M315.868 688.565C317.463 688.565 318.756 687.272 318.756 685.677C318.756 684.082 317.463 682.789 315.868 682.789C314.273 682.789 312.98 684.082 312.98 685.677C312.98 687.272 314.273 688.565 315.868 688.565Z" fill="#9D9D9D" fill-opacity="0.14"/>
<path d="M320.34 660.449C322.47 660.449 324.197 658.722 324.197 656.592C324.197 654.462 322.47 652.736 320.34 652.736C318.21 652.736 316.483 654.462 316.483 656.592C316.483 658.722 318.21 660.449 320.34 660.449Z" fill="#9D9D9D" fill-opacity="0.14"/>
<path d="M325.632 631.029C328.287 631.029 330.439 628.877 330.439 626.222C330.439 623.567 328.287 621.415 325.632 621.415C322.977 621.415 320.825 623.567 320.825 626.222C320.825 628.877 322.977 631.029 325.632 631.029Z" fill="#9D9D9D" fill-opacity="0.14"/>
<path d="M332.265 599.932C335.455 599.932 338.041 597.346 338.041 594.156C338.041 590.966 335.455 588.38 332.265 588.38C329.075 588.38 326.489 590.966 326.489 594.156C326.489 597.346 329.075 599.932 332.265 599.932Z" fill="#9D9D9D" fill-opacity="0.14"/>
<path d="M337.388 570.456C341.114 570.456 344.133 567.437 344.133 563.712C344.133 559.987 341.114 556.967 337.388 556.967C333.663 556.967 330.644 559.987 330.644 563.712C330.644 567.437 333.663 570.456 337.388 570.456Z" fill="#9D9D9D" fill-opacity="0.14"/>
<path d="M343.574 536.304C347.824 536.304 351.269 532.859 351.269 528.609C351.269 524.359 347.824 520.914 343.574 520.914C339.325 520.914 335.879 524.359 335.879 528.609C335.879 532.859 339.325 536.304 343.574 536.304Z" fill="#9D9D9D" fill-opacity="0.14"/>
<path d="M349.742 502.245C354.527 502.245 358.406 498.366 358.406 493.581C358.406 488.796 354.527 484.917 349.742 484.917C344.957 484.917 341.078 488.796 341.078 493.581C341.078 498.366 344.957 502.245 349.742 502.245Z" fill="#9D9D9D" fill-opacity="0.14"/>
<path d="M356.43 465.279C361.75 465.279 366.063 460.966 366.063 455.646C366.063 450.326 361.75 446.013 356.43 446.013C351.11 446.013 346.798 450.326 346.798 455.646C346.798 460.966 351.11 465.279 356.43 465.279Z" fill="#9D9D9D" fill-opacity="0.14"/>
<path d="M371.243 742.952C371.778 742.952 372.212 742.518 372.212 741.983C372.212 741.448 371.778 741.014 371.243 741.014C370.708 741.014 370.274 741.448 370.274 741.983C370.274 742.518 370.708 742.952 371.243 742.952Z" fill="#9D9D9D" fill-opacity="0.14"/>
<path d="M371.243 718.861C372.303 718.861 373.162 718.001 373.162 716.941C373.162 715.881 372.303 715.022 371.243 715.022C370.183 715.022 369.324 715.881 369.324 716.941C369.324 718.001 370.183 718.861 371.243 718.861Z" fill="#9D9D9D" fill-opacity="0.14"/>
<path d="M371.243 693.409C372.838 693.409 374.131 692.116 374.131 690.521C374.131 688.926 372.838 687.633 371.243 687.633C369.648 687.633 368.355 688.926 368.355 690.521C368.355 692.116 369.648 693.409 371.243 693.409Z" fill="#9D9D9D" fill-opacity="0.14"/>
<path d="M370.572 664.958C372.702 664.958 374.429 663.231 374.429 661.101C374.429 658.971 372.702 657.244 370.572 657.244C368.442 657.244 366.715 658.971 366.715 661.101C366.715 663.231 368.442 664.958 370.572 664.958Z" fill="#9D9D9D" fill-opacity="0.14"/>
<path d="M370.516 635.091C373.171 635.091 375.323 632.939 375.323 630.284C375.323 627.629 373.171 625.477 370.516 625.477C367.861 625.477 365.709 627.629 365.709 630.284C365.709 632.939 367.861 635.091 370.516 635.091Z" fill="#9D9D9D" fill-opacity="0.14"/>
<path d="M371.484 603.305C374.674 603.305 377.26 600.719 377.26 597.529C377.26 594.339 374.674 591.753 371.484 591.753C368.295 591.753 365.709 594.339 365.709 597.529C365.709 600.719 368.295 603.305 371.484 603.305Z" fill="#9D9D9D" fill-opacity="0.14"/>
<path d="M371.243 573.4C374.968 573.4 377.987 570.381 377.987 566.656C377.987 562.931 374.968 559.911 371.243 559.911C367.518 559.911 364.498 562.931 364.498 566.656C364.498 570.381 367.518 573.4 371.243 573.4Z" fill="#9D9D9D" fill-opacity="0.14"/>
<path d="M371.243 538.726C375.493 538.726 378.938 535.281 378.938 531.031C378.938 526.781 375.493 523.336 371.243 523.336C366.993 523.336 363.548 526.781 363.548 531.031C363.548 535.281 366.993 538.726 371.243 538.726Z" fill="#9D9D9D" fill-opacity="0.14"/>
<path d="M371.243 504.126C376.028 504.126 379.907 500.247 379.907 495.463C379.907 490.678 376.028 486.799 371.243 486.799C366.458 486.799 362.579 490.678 362.579 495.463C362.579 500.247 366.458 504.126 371.243 504.126Z" fill="#9D9D9D" fill-opacity="0.14"/>
<path d="M396.955 501.425C401.74 501.425 405.619 497.546 405.619 492.761C405.619 487.976 401.74 484.097 396.955 484.097C392.17 484.097 388.291 487.976 388.291 492.761C388.291 497.546 392.17 501.425 396.955 501.425Z" fill="#9D9D9D" fill-opacity="0.14"/>
<path d="M388.961 464.701C394.281 464.701 398.594 460.388 398.594 455.068C398.594 449.748 394.281 445.436 388.961 445.436C383.641 445.436 379.329 449.748 379.329 455.068C379.329 460.388 383.641 464.701 388.961 464.701Z" fill="#9D9D9D" fill-opacity="0.14"/>
<path d="M380.149 424.233C386.004 424.233 390.75 419.486 390.75 413.631C390.75 407.776 386.004 403.029 380.149 403.029C374.294 403.029 369.547 407.776 369.547 413.631C369.547 419.486 374.294 424.233 380.149 424.233Z" fill="#9D9D9D" fill-opacity="0.14"/>
</svg>
