<svg width="80" height="81" viewBox="0 0 80 81" fill="none" xmlns="http://www.w3.org/2000/svg">
<path d="M39.6295 0.833077C17.7561 0.919193 0.102431 18.7451 0.188546 40.6185C0.274662 62.4919 18.1006 80.1456 39.974 80.0594C61.8473 79.9733 79.501 62.1474 79.4149 40.274C79.3288 18.4007 61.5029 0.746962 39.6295 0.833077ZM40.0027 77.1028C19.7655 77.1889 3.28871 60.8844 3.17389 40.6472C3.05907 20.41 19.3923 3.93324 39.6295 3.81842C59.8667 3.7323 76.3435 20.0369 76.4296 40.274C76.5444 60.5112 60.2111 76.988 40.0027 77.1028Z" fill="white"/>
<path d="M39.6005 31.4903C39.6005 34.246 37.3615 36.485 34.6058 36.485C31.8501 36.485 29.6111 34.246 29.6111 31.4903C29.6111 28.7346 31.8501 26.4956 34.6058 26.4956C37.3615 26.4956 39.6005 28.7346 39.6005 31.4903Z" fill="white"/>
<path d="M58.3742 27.3566C55.7046 26.5815 52.9489 25.4907 50.1645 24.3999C49.9923 23.711 49.3895 22.8212 48.1265 21.7591C46.318 20.1803 42.8734 20.209 39.9168 20.9266C36.6444 20.1516 33.4294 19.8932 30.3292 20.6396C16.8665 24.3425 14.6275 30.8873 14.0534 38.7812C13.3358 47.4789 12.9339 53.9089 9.63278 61.2861C16.0627 71.5913 31.1904 79.6001 45.1698 76.7295C45.543 76.6721 45.9162 76.586 46.2606 76.5286C46.2606 76.5286 46.2606 76.5286 46.2606 76.4999C44.7392 65.7929 54.1258 55.2867 59.3789 49.9189C60.5558 48.7133 62.3929 47.0771 64.0866 45.2973C71.0332 38.8674 72.4685 31.1744 58.3742 27.3566ZM66.9571 41.824C66.7848 41.9388 66.6126 42.0536 66.4404 42.1685C66.6126 42.0536 66.7848 41.9101 66.9571 41.824ZM59.9817 36.9728C60.8429 36.9728 61.5318 37.6617 61.5318 38.4942C61.5318 39.3554 60.8429 40.0443 60.0104 40.0443C59.1493 40.0443 58.4603 39.3554 58.4603 38.5229C58.4316 37.6617 59.1206 36.9728 59.9817 36.9728ZM46.9783 47.9095C49.3034 47.9956 51.6572 47.7947 53.9536 47.3354C56.2787 46.8474 58.5464 46.1585 60.728 45.2399C61.9911 44.7232 63.2541 44.1491 64.431 43.4602C59.3502 46.5604 53.4943 48.7133 45.7152 48.7133C42.9882 48.7133 41.6391 46.9048 40.2899 46.1011L40.3186 46.0437C42.3567 47.3928 44.6818 47.8521 46.9783 47.9095ZM34.6063 24.3425C38.5102 24.3425 41.6965 27.5001 41.6965 31.4327C41.6965 35.3366 38.5389 38.5229 34.6063 38.5229C30.7024 38.5229 27.5161 35.3653 27.5161 31.4327C27.5161 27.5288 30.7024 24.3425 34.6063 24.3425Z" fill="white"/>
</svg>
