<svg width="80" height="81" viewBox="0 0 80 81" fill="none" xmlns="http://www.w3.org/2000/svg">
<path d="M68.9608 48.1426C67.7218 49.0719 66.0696 49.1752 64.6241 48.4524C63.0752 47.5231 62.2491 45.4579 62.2491 42.5667V33.7899C62.2491 29.5564 60.597 26.5619 57.8091 25.7359C53.0593 24.3935 49.5486 30.1759 48.2062 32.3443L39.8424 45.871V29.3499C39.7392 25.5294 38.5001 23.2577 36.1252 22.5349C34.5763 22.1219 32.2014 22.2252 30.033 25.7359L11.2403 55.7836C8.7621 51.0338 7.52302 45.6645 7.52302 40.2951C7.52302 22.2251 21.979 7.56268 39.8424 7.56268C57.7058 7.56268 72.1618 22.2252 72.1618 40.3984V40.5016V40.6049C72.2651 44.0123 71.1292 46.8003 68.9608 48.1426ZM79.2865 40.2951V40.0886C79.1833 18.0949 61.5263 0.231445 39.7392 0.231445C17.952 0.231445 0.295044 18.1981 0.295044 40.2951C0.295044 62.3921 18.0552 80.3587 39.7392 80.3587C49.7551 80.3587 59.3579 76.5382 66.5859 69.62C68.0315 68.2777 68.1348 65.9028 66.7924 64.4572C65.4501 63.0116 63.2817 62.9083 61.8361 64.2507C49.0323 76.435 28.7939 75.8154 16.7129 63.0116C16.4031 62.7018 16.0933 62.3921 15.8868 62.0823L32.7177 35.029V47.5231C32.7177 53.512 34.9893 55.4739 36.9512 55.9901C38.9131 56.5064 41.9075 56.1967 45.0053 51.0338L54.2984 35.9583C54.6081 35.442 54.8147 35.029 55.1244 34.7192V42.5667C55.1244 48.1426 57.3961 52.6859 61.3198 54.8543C64.9338 56.8162 69.3739 56.6097 72.8846 54.338C77.1181 51.5501 79.493 46.4905 79.2865 40.2951Z" fill="white"/>
</svg>
