<svg width="73" height="86" viewBox="0 0 73 86" fill="none" xmlns="http://www.w3.org/2000/svg">
<path fill-rule="evenodd" clip-rule="evenodd" d="M43.5657 30.6379C46.1871 29.3306 49.5204 27.4073 52.8571 24.7755C53.5621 26.2368 53.6374 27.5133 53.2746 28.5434C53.018 29.269 52.532 29.8987 51.8955 30.4017C51.2076 30.9459 50.3452 31.3394 49.3938 31.5516C47.5868 31.9589 45.4787 31.7227 43.5657 30.6379ZM44.0174 44.0223L47.4842 46.0244C40.4035 49.9942 38.4768 57.3623 36.1907 64.5388C33.9046 57.3623 31.9779 49.9908 24.8973 46.0244L28.364 44.0223C29.0519 43.7622 29.4934 43.0881 29.4591 42.3523C29.1409 35.6309 30.9581 32.657 33.405 30.7919C34.2845 30.1245 35.2428 29.7891 36.1873 29.7891C37.1318 29.7891 38.0901 30.1245 38.9696 30.7919C41.4165 32.657 43.2337 35.6309 42.9155 42.3523C42.8881 43.0915 43.3296 43.7622 44.0174 44.0223ZM36.1941 0.131836C40.2016 0.237926 44.2228 1.0182 47.71 2.53084C50.1262 3.58147 52.378 4.96749 54.4177 6.62386C55.3383 7.37334 56.098 8.09544 56.933 8.92705C59.1883 9.00576 62.4805 6.50066 64.0103 4.15641C61.382 12.7908 49.3698 22.9823 41.0537 26.8802C41.0503 26.8802 41.0469 26.8768 41.0469 26.8734C39.5548 25.7338 37.8745 25.1623 36.1976 25.1623C34.5207 25.1623 32.8403 25.7338 31.3482 26.8734C31.3448 26.8734 31.3448 26.8768 31.3414 26.8802C23.0184 22.9823 11.0063 12.7908 8.37458 4.15984C9.90433 6.50409 13.2 9.00918 15.4518 8.93047C16.2868 8.09886 17.0466 7.37334 17.9672 6.62729C20.0068 4.97091 22.2621 3.58147 24.6748 2.53426C28.1655 1.0182 32.1867 0.237926 36.1941 0.131836ZM28.8226 30.6379C26.2046 29.3306 22.8679 27.4073 19.5311 24.7755C18.8262 26.2368 18.7509 27.5133 19.1136 28.5434C19.3703 29.269 19.8563 29.8987 20.4928 30.4017C21.1841 30.9459 22.0431 31.3394 22.9945 31.5516C24.8014 31.9589 26.9095 31.7227 28.8226 30.6379Z" fill="white"/>
<path fill-rule="evenodd" clip-rule="evenodd" d="M56.5117 21.5485C58.3495 19.6936 59.9682 17.6437 61.2687 15.8093L61.9292 17.055C64.0578 21.3123 65.1632 25.5559 65.1632 30.3266L65.1598 37.9L65.2009 41.8254C65.3549 51.4659 67.439 61.2159 72.1652 70.1411L62.2817 62.1707L55.2832 73.5223L47.9356 66.6059L36.1938 85.6611L24.452 66.6059L17.1044 73.5223L10.1093 62.1707L0.222412 70.1446C4.94855 61.2193 7.03271 51.4659 7.18671 41.8288L7.22778 37.9034L7.22436 30.33C7.22436 25.5559 8.32975 21.3157 10.4584 17.0585L11.1189 15.8127C12.4193 17.6437 14.0381 19.697 15.8758 21.5519L15.3009 22.7428C14.1852 25.0563 13.8156 27.6469 14.6849 30.1075C15.2461 31.692 16.266 33.0541 17.5835 34.091C18.8635 35.1006 20.3761 35.7782 21.9606 36.1341C22.9941 36.3668 24.0448 36.4627 25.0886 36.4284C24.8456 37.811 24.7395 39.245 24.7326 40.7028L15.407 46.0895L22.6074 50.1209C23.1824 50.4426 23.7299 50.8122 24.2433 51.2263C30.174 56.5513 33.7435 72.3108 36.1938 80.0075C38.6441 72.3108 42.2101 56.5548 48.1443 51.2263C48.6577 50.8122 49.2052 50.4426 49.7802 50.1209L56.9772 46.0861L47.6515 40.7028C47.6447 39.2415 47.5386 37.8076 47.2956 36.4284C48.3394 36.4627 49.3934 36.3668 50.4235 36.1341C52.0081 35.7782 53.5207 35.0972 54.8006 34.091C56.1182 33.0541 57.138 31.692 57.6993 30.1075C58.5685 27.6469 58.1989 25.0563 57.0833 22.7428L56.5117 21.5485Z" fill="white"/>
</svg>
