<svg width="66" height="76" viewBox="0 0 66 76" fill="none" xmlns="http://www.w3.org/2000/svg">
<path fill-rule="evenodd" clip-rule="evenodd" d="M24.873 5.09648C20.4204 7.41556 16.7787 9.37855 16.7817 9.45635C16.7846 9.66283 27.4644 15.073 27.8444 15.0581C28.018 15.0521 29.2688 14.4775 30.6243 13.7773L33.09 12.5086L35.7832 13.894L38.4763 15.2795L42.8871 13.2956C49.5391 10.3122 50.2303 9.98301 50.1196 9.87229C49.976 9.72567 47.5911 8.44493 41.1216 5.03962C37.9945 3.39382 34.9603 1.78094 34.3768 1.45178C33.7933 1.12561 33.2397 0.862279 33.1409 0.868264C33.0422 0.874249 29.3257 2.77739 24.873 5.09648ZM5.34782 15.2077L0.71265 17.6016V28.1078C0.71265 33.886 0.772497 38.614 0.847306 38.614C0.922115 38.614 3.2023 37.6265 5.91338 36.4176L10.8448 34.2212V23.1434L13.2537 24.4571C15.1119 25.4685 16.9672 26.4769 18.8284 27.4824L21.9914 29.197L23.4008 28.5596C24.2835 28.1586 25.1663 27.7547 26.046 27.3477C26.7253 27.0305 28.395 26.2794 29.7536 25.678C31.1121 25.0765 32.3719 24.4691 32.5484 24.3314C32.7848 24.1489 29.8942 22.5509 21.8597 18.4245C15.8032 15.3124 10.6503 12.7779 10.4139 12.7898C10.1775 12.8018 7.89732 13.891 5.34782 15.2077ZM50.9575 15.878C47.8005 17.3023 45.2181 18.5262 45.2151 18.595C45.2121 18.6639 46.9327 19.6873 49.0394 20.8662C51.146 22.0452 52.8666 23.0746 52.8666 23.1524C52.8666 23.2302 51.0024 24.1309 48.7282 25.1573C46.451 26.1837 40.6966 28.781 35.9388 30.9326L19.9984 38.1382C15.9887 39.9516 12.3739 41.5854 11.9669 41.7709C3.77683 45.4785 1.52657 46.5078 1.21537 46.6844C0.904161 46.8609 0.835337 47.8963 0.778482 53.0791L0.706665 59.2673L4.85109 61.3799L8.99552 63.4925L14.7409 60.8981C17.9008 59.4708 20.4862 58.2289 20.4862 58.1392C20.4862 58.0494 19.9027 57.6664 19.1875 57.2923C18.4723 56.9183 17.0001 56.0894 15.9139 55.452C14.8276 54.8146 13.7414 54.2281 13.505 54.1503C13.2656 54.0725 13.0771 53.9379 13.0801 53.8481C13.0831 53.7613 15.6146 52.5584 18.7028 51.1759C24.7024 48.4948 29.2927 46.427 39.1466 41.9714C43.5544 39.9785 47.9621 37.9886 52.3699 35.9986C56.245 34.2511 60.7485 32.2073 62.3793 31.4592L65.3448 30.1007L65.4106 23.8466L65.4764 17.5926L61.2722 15.4321C58.9591 14.2471 56.9841 13.2776 56.8794 13.2806C56.7776 13.2836 54.1114 14.4536 50.9575 15.878ZM64.2196 38.4404C63.6002 38.7426 62.3763 39.3082 61.4996 39.7002C60.6228 40.0892 58.962 40.8403 57.807 41.3669L55.7063 42.3245L55.6585 47.8155C55.6315 50.8348 55.5208 53.2915 55.4101 53.2766C55.1617 53.2407 51.2238 51.2208 47.2649 49.0992C44.4072 47.5701 44.2276 47.5073 43.5573 47.8394C43.1683 48.0309 40.8493 49.0723 38.4045 50.1525C35.9567 51.2328 33.877 52.1843 33.7783 52.2711C33.6795 52.3579 38.605 55.0271 44.7214 58.202L55.841 63.9773L60.5929 61.5205C63.2052 60.168 65.4286 58.9351 65.5303 58.7825C65.7607 58.4324 65.7398 37.8449 65.5093 37.8719C65.4196 37.8808 64.8391 38.1382 64.2196 38.4404ZM37.9108 62.6068C37.0879 62.9599 36.262 63.3159 35.4391 63.672C32.9524 64.7493 33.4402 64.7852 30.4807 63.31C28.5087 62.3285 27.6619 62.0262 27.2908 62.1729C27.0155 62.2836 24.6336 63.3548 22.0003 64.5518C19.3671 65.7517 17.1228 66.7302 17.0091 66.7302C15.9049 66.7302 17.7422 67.8284 24.8281 71.4013L33.1379 75.5936L36.636 73.867C38.5601 72.9184 42.4382 71.0153 45.257 69.6418C48.0758 68.2683 50.347 67.1073 50.3021 67.0624C50.2602 67.0175 47.8993 65.8056 45.0535 64.3693L39.8827 61.7539L37.9108 62.6068Z" fill="white"/>
</svg>
