<svg width="88" height="73" viewBox="0 0 88 73" fill="none" xmlns="http://www.w3.org/2000/svg">
<path d="M79.7952 1.2047C79.7952 1.2047 87.7906 -1.91293 87.1243 5.65847C86.9022 8.77614 84.9034 19.6879 83.3487 31.4904L78.0185 66.4525C78.0185 66.4525 77.5744 71.5743 73.5767 72.4651C69.5789 73.3558 63.5825 69.3475 62.4719 68.4567C61.5835 67.7887 45.8151 57.7676 40.2626 52.8685C38.708 51.5323 36.9312 48.86 40.4847 45.7424L63.8046 23.4737C66.4697 20.8014 69.1348 14.5661 58.0301 22.1375L26.9371 43.293C26.9371 43.293 23.3836 45.5197 16.7209 43.5156L2.2848 39.0618C2.2848 39.0618 -3.04545 35.7215 6.06038 32.381C28.2698 21.9146 55.5872 11.2256 79.7952 1.2047Z" fill="white"/>
</svg>
