<?xml version="1.0" encoding="UTF-8"?>
<svg id="Layer_1" xmlns="http://www.w3.org/2000/svg" version="1.1" viewBox="0 0 88 73">
  <!-- Generator: Adobe Illustrator 29.0.1, SVG Export Plug-In . SVG Version: 2.1.0 Build 192)  -->
  <path d="M79.8,1.2s8-3.1,7.3,4.5c-.2,3.1-2.2,14-3.8,25.8l-5.3,35s-.4,5.1-4.4,6c-4,.9-10-3.1-11.1-4-.9-.7-16.7-10.7-22.2-15.6-1.6-1.3-3.3-4,.2-7.1l23.3-22.3c2.7-2.7,5.3-8.9-5.8-1.3l-31.1,21.2s-3.6,2.2-10.2.2l-14.4-4.5s-5.3-3.3,3.8-6.7C28.3,21.9,55.6,11.2,79.8,1.2Z"/>
</svg>